<?xml version="1.0" standalone="no"?>
<!DOCTYPE svg PUBLIC "-//W3C//DTD SVG 1.1//EN" "http://www.w3.org/Graphics/SVG/1.1/DTD/svg11.dtd" >
<svg xmlns="http://www.w3.org/2000/svg">
<metadata>Generated by IcoMoon</metadata>
<defs>
<font id="rdl-icons" horiz-adv-x="1024">
<font-face units-per-em="1024" ascent="960" descent="-64" />
<missing-glyph horiz-adv-x="1024" />
<glyph unicode="&#x20;" horiz-adv-x="512" d="" />
<glyph unicode="&#xe900;" glyph-name="doc" d="M518.144 367.276c-36.863 0-49.153-20.481-49.153-59.392v-79.871c0-38.912 14.336-59.392 49.153-59.392 36.863 0 49.153 20.481 49.153 59.392v81.92c0 36.863-12.288 57.344-49.153 57.344zM614.4 938.667h-409.599c-57.344 0-102.4-45.056-102.4-102.4v-819.2c0-57.344 45.056-102.4 102.4-102.4h614.399c57.344 0 102.4 45.056 102.4 102.4v614.399l-307.2 307.2zM563.2 862.891l282.623-282.623h-282.623v282.623zM276.481 127.659h-100.352v284.672h92.161c69.632 0 114.688-45.056 114.688-141.312 0-88.064-45.056-143.36-106.497-143.36zM618.496 225.963c0-61.44-32.768-100.352-100.352-100.352s-100.352 38.912-100.352 100.352v88.064c0 61.44 32.768 100.352 100.352 100.352s100.352-40.96 100.352-100.352v-88.064zM755.711 123.564c-71.68 0-102.4 43.008-102.4 108.543v71.68c0 65.535 28.672 108.543 100.352 108.543 45.056 0 73.728-20.481 92.161-59.392l-38.912-20.481c-14.336 24.576-30.72 32.768-51.199 32.768-36.863 0-49.153-22.527-49.153-59.392v-79.871c0-34.817 14.336-59.392 51.199-59.392 20.481 0 36.863 6.145 51.199 32.768l38.912-20.481c-18.432-34.817-47.104-55.296-92.161-55.296zM264.193 367.276h-36.863v-194.559h36.863c53.248 0 65.535 47.104 65.535 98.304 0 45.056-12.288 96.256-65.535 96.256z" />
<glyph unicode="&#xe901;" glyph-name="fb" d="M585.142 631.754v83.182c0 40.156 25.815 48.761 45.894 48.761s114.735 0 114.735 0v174.97h-157.76c-174.97 0-215.126-131.945-215.126-215.126v-91.787h-100.392v-203.651h103.261c0-232.337 0-513.434 0-513.434h203.651c0 0 0 283.967 0 513.434h152.022l20.079 203.651h-166.365z" />
<glyph unicode="&#xe902;" glyph-name="insta" d="M723.88-64.001h-423.759c-153.891 0-278.788 124.897-278.788 278.788v423.759c0 153.891 124.897 278.788 278.788 278.788h423.759c153.891 0 278.788-124.897 278.788-278.788v-423.759c0-153.891-124.897-278.788-278.788-278.788zM300.122 832.582c-107.054 0-196.268-86.982-196.268-196.268v-423.759c0-107.054 86.982-196.268 196.268-196.268h423.759c107.054 0 196.268 86.982 196.268 196.268v423.759c0 107.054-86.982 196.268-196.268 196.268h-423.759zM512.001 174.643c-138.279 0-252.024 113.746-252.024 252.024s113.746 252.024 252.024 252.024c138.279 0 252.024-113.746 252.024-252.024s-113.746-252.024-252.024-252.024zM512.001 593.94c-91.442 0-167.273-75.831-167.273-167.273s75.831-167.273 167.273-167.273c91.442 0 167.273 75.831 167.273 167.273s-75.831 167.273-167.273 167.273zM835.395 692.073c0-33.454-26.763-60.218-60.218-60.218s-60.218 26.763-60.218 60.218c0 33.454 26.763 60.218 60.218 60.218 31.223 0 60.218-26.763 60.218-60.218z" />
<glyph unicode="&#xe903;" glyph-name="linkedin" d="M981.333-21.333v0 0 345.408c0 168.75-36.913 297.947-232.030 297.947-94.92 0-158.202-52.733-184.569-100.195h-2.637v84.374h-187.206v-627.535h195.115v311.132c0 81.739 15.82 160.839 116.015 160.839s100.195-92.283 100.195-166.111v-305.856h195.115zM58.485 606.203h195.115v-627.535h-195.115v627.535zM156.045 917.334c-63.282 0-113.378-50.098-113.378-113.378s50.098-113.378 113.378-113.378 113.378 52.733 113.378 113.378c0 63.282-50.098 113.378-113.378 113.378z" />
<glyph unicode="&#xe904;" glyph-name="pdf" d="M508.933 368.416h-38.834v-196.215h38.834c53.141 0 65.405 47.010 65.405 100.152 0 44.966-12.263 96.063-65.405 96.063zM263.664 366.372h-30.659v-98.108h34.747c36.79 0 51.097 16.351 51.097 51.097-2.044 36.79-16.351 47.010-55.185 47.010zM921.803 634.124l-308.63 304.543-408.782-2.044c-57.229 0-102.196-47.010-102.196-102.196l2.044-817.564c0-57.229 44.966-102.196 102.196-102.196l613.173 2.044c57.229 0 102.196 47.010 102.196 102.196v615.217zM267.75 225.342h-36.79v-98.108h-51.097l-2.044 286.147h83.8c65.405 0 104.24-18.396 104.24-94.019 4.088-67.449-34.747-94.019-98.108-94.019zM521.196 127.234h-102.196l-2.044 286.147h91.977c69.493 0 116.503-44.966 116.503-141.030 2.044-89.932-42.922-145.118-104.24-145.118zM731.719 290.747h98.108v-44.966h-98.108v-118.547h-51.097l-2.044 286.147h159.425v-44.966h-108.327l2.044-77.669zM564.119 580.983l-2.044 282.059 282.059-280.015-280.015-2.044z" />
<glyph unicode="&#xe905;" glyph-name="ppt" d="M262.145 377.515h-32.768v-102.4h36.863c38.912 0 53.248 16.384 53.248 51.199 0 38.912-16.384 51.199-57.344 51.199zM503.808 377.515h-32.768v-102.4h36.863c38.912 0 53.248 16.384 53.248 51.199 0 38.912-16.384 51.199-57.344 51.199zM614.4 938.667h-409.599c-57.344 0-102.4-45.056-102.4-102.4v-819.2c0-57.344 45.056-102.4 102.4-102.4h614.399c57.344 0 102.4 45.056 102.4 102.4v614.399l-307.2 307.2zM563.2 862.891l282.623-282.623h-282.623v282.623zM268.288 228.011h-38.912v-104.448h-53.248v301.056h88.064c67.584 0 108.543-20.481 108.543-98.304 0-69.632-38.912-98.304-104.448-98.304zM509.951 228.011h-38.912v-104.448h-53.248v301.056h88.064c67.584 0 108.543-20.481 108.543-98.304 0-69.632-38.912-98.304-104.448-98.304zM854.015 377.515h-79.871v-251.903h-53.248v251.903h-79.871v47.104h212.992v-47.104z" />
<glyph unicode="&#xe906;" glyph-name="twitter" d="M1019.126 728.232c-35.202-16.428-75.098-28.162-114.994-32.855 39.896 25.814 72.752 63.365 86.833 110.3-37.549-23.469-82.138-39.896-126.728-49.283-35.202 42.243-86.833 65.711-145.502 65.711-110.3 0-199.48-89.179-199.48-199.48 0-16.428 2.347-30.509 4.693-44.59-166.624 9.388-312.127 86.833-410.694 208.866-16.428-28.162-28.162-63.365-28.162-100.914 0-70.405 35.202-131.421 89.179-166.624-32.855 0-63.365 9.388-91.526 23.469 0 0 0 0 0-2.347 0-96.219 68.057-178.359 159.584-194.786-16.428-4.693-35.202-7.040-51.631-7.040-11.734 0-25.814 2.347-37.549 4.693 25.814-79.792 98.567-138.462 185.399-138.462-65.711-56.323-150.197-86.833-244.069-86.833-16.428 0-30.509 0-46.936 2.347 89.179-56.323 194.786-89.179 307.433-89.179 366.104 0 567.93 305.087 567.93 567.93 0 9.388 0 16.428 0 25.814 35.202 28.162 70.405 63.365 96.219 103.259z" />
<glyph unicode="&#xe907;" glyph-name="xls" d="M614.4 938.668h-409.599c-57.344 0-102.4-45.056-102.4-102.4v-819.2c0-57.344 45.056-102.4 102.4-102.4h614.399c57.344 0 102.4 45.056 102.4 102.4v614.399l-307.2 307.2zM335.873 123.564l-49.153 108.543h-2.048l-49.153-108.543h-59.392l75.776 157.696-71.68 147.456h59.392l45.056-100.352h2.048l45.056 100.352h59.392l-71.68-147.456 75.776-157.696h-59.392zM614.4 123.564h-172.032v305.152h55.296v-258.048h116.736v-47.104zM737.281 119.468c-47.104 0-79.871 16.384-104.448 32.768l24.576 38.912c24.576-12.288 51.199-22.527 77.825-22.527 38.912 0 51.199 18.432 51.199 38.912 0 73.728-143.36 30.72-143.36 137.215 0 57.344 40.96 86.016 98.304 86.016 36.863 0 67.584-12.288 90.112-28.672l-24.576-40.96c-24.576 12.288-45.056 20.481-69.632 20.481-32.768 0-40.96-16.384-40.96-36.863 0-59.392 143.36-24.576 143.36-137.215 0-55.296-43.008-88.064-102.4-88.064zM563.201 580.268v282.623l282.623-282.623h-282.623z" />
<glyph unicode="&#xe908;" glyph-name="youtube" d="M410.055 272.613l267.328 154.053-267.328 154.053v-308.106zM1003.611 673.604c6.796-24.92 11.327-56.638 13.593-97.416 4.531-40.779 4.531-77.027 4.531-106.477l2.266-43.045c0-113.274-9.062-194.831-22.655-246.938-13.593-45.309-43.045-77.027-88.354-88.354-24.92-6.796-67.965-11.327-135.929-13.593-65.699-4.531-126.867-4.531-183.504-4.531l-81.557-2.266c-215.221 0-348.885 9.062-400.991 22.655-45.309 13.593-77.027 43.045-88.354 88.354-6.796 24.92-11.327 56.638-13.593 97.416-4.531 38.513-6.796 72.495-6.796 104.213l-2.266 43.045c0 113.274 9.062 194.831 22.655 246.938 13.593 45.309 43.045 77.027 88.354 88.354 24.92 6.796 67.965 11.327 135.929 13.593 65.699 4.531 126.867 4.531 183.504 4.531l81.557 2.266c215.221 0 348.885-9.062 400.991-22.655 47.575-9.062 77.027-38.513 90.62-86.088z" />
<glyph unicode="&#xe909;" glyph-name="zip" d="M710.654 387.754h-40.96v-124.928h45.056c47.104 0 65.535 20.481 65.535 63.489 0 47.104-18.432 61.44-69.632 61.44zM614.399 938.666h-409.599c-57.344 0-102.4-45.056-102.4-102.4v-819.2c0-57.344 45.056-102.4 102.4-102.4h614.399c57.344 0 102.4 45.056 102.4 102.4v614.399l-307.2 307.2zM417.791 395.947l-155.648-260.096h155.648v-57.344h-233.472v49.153l155.648 260.096h-147.456v57.344h225.279v-49.153zM542.719 76.459h-65.535v368.639h65.535v-368.639zM563.199 862.89l282.623-282.623h-282.623v282.623zM716.799 203.434h-47.104v-126.976h-65.535v368.639h108.543c83.968 0 133.12-24.576 133.12-120.833 0-86.016-47.104-120.833-129.024-120.833z" />
<glyph unicode="&#xe90a;" glyph-name="conferencecall" horiz-adv-x="1002" d="M718.994 491.033v151.406c0 24.137-19.749 43.154-43.154 43.154h-521.509c-24.137 0-43.154-19.749-43.154-43.154v-433.737c0-24.137 19.749-43.154 43.154-43.154h520.777c24.137 0 43.154 19.749 43.154 43.154v152.137l173.349-173.349v476.891l-172.617-173.349z" />
<glyph unicode="&#xe90b;" glyph-name="flipover" horiz-adv-x="1002" d="M703.634 850.896h-405.211v-550.766h174.080l-96.549-265.509c-3.657-9.509 1.463-20.48 11.703-24.137 2.194-0.731 4.389-1.463 6.583-1.463 8.046 0 15.36 5.12 17.554 12.434l70.949 194.56v-194.56c0-10.24 8.777-19.017 19.017-19.017s19.017 8.777 19.017 19.017v194.56l70.949-194.56c2.926-8.046 10.24-12.434 17.554-12.434 2.194 0 4.389 0.731 6.583 1.463 9.509 3.657 14.629 14.629 11.703 24.137l-98.011 265.509h174.080v550.766zM650.24 360.107h-300.617v452.754h93.623v-19.017h114.103v19.017h93.623v-452.754z" />
<glyph unicode="&#xe90c;" glyph-name="lectern" horiz-adv-x="1002" d="M499.566 718.507c19.749 0 32.183 16.091 32.183 32.183v68.023c0 19.749-16.091 32.183-32.183 32.183-19.749 0-32.183-16.091-32.183-32.183v-68.023c0-19.017 12.434-32.183 32.183-32.183zM557.349 750.69c0-32.183-29.257-58.514-58.514-58.514s-58.514 22.674-58.514 58.514h-19.749c0-38.766 29.257-70.949 68.023-74.606v-35.84h23.406v35.84c35.84 6.583 68.023 35.84 68.023 74.606h-22.674zM278.674 452.998v42.423c0 35.109 28.526 63.634 63.634 63.634h317.44c35.109 0 63.634-28.526 63.634-63.634v-42.423h27.063l79.726 198.949c0 0-658.286 2.194-658.286 0l79.726-198.949h27.063zM691.2 71.924v407.406c0 29.989-24.137 54.126-54.126 54.126h-272.091c-29.989 0-54.126-24.137-54.126-54.126v-404.48h-42.423v-72.411h464.457v68.754l-41.691 0.731z" />
<glyph unicode="&#xe90d;" glyph-name="light" horiz-adv-x="1002" d="M604.893 665.111h-171.157l-143.066 142.411-171.157-171.157 143.066-142.411v-171.808l143.066-143.066 342.314 342.314-143.066 143.719zM804.796 179.732l-56.834-56.834-85.576 85.576 56.834 56.834 85.576-85.576zM908.012 504.406v-80.35h-120.855v80.35h120.855zM503.637 140.537v-120.855h-80.35v120.855h80.35z" />
<glyph unicode="&#xe90e;" glyph-name="m2" horiz-adv-x="1002" d="M766.776 675.369h-734.482v-485.781h454.015v48.811h-404.43v388.16h636.087v-388.16h-59.658l-154.955-77.477 10.847-22.468 10.847-21.693 144.107 72.828h97.621zM923.28 655.999v8.523c0 22.468 37.189 34.864 37.189 49.585 0 9.297-6.198 13.171-15.496 13.171-6.198 0-12.396-2.324-17.82-5.423l-3.874 7.747c4.649 3.099 12.396 6.973 21.693 6.973 14.72 0 24.793-7.747 24.793-21.693 0-22.468-36.414-30.99-36.414-49.585h36.414v-9.297h-46.486zM862.072 641.278c0 13.946-5.423 18.594-16.27 18.594-7.747 0-13.946-4.649-17.82-8.523v-61.207h-11.621v79.801h9.297l1.55-10.072c3.099 3.874 11.621 10.847 23.243 10.847 10.847 0 17.044-4.649 20.919-11.621 3.099 3.874 12.396 11.621 24.017 11.621 17.044 0 24.017-12.396 24.017-27.117v-54.234h-11.621v51.135c0 13.946-6.198 18.594-16.27 18.594-7.747 0-13.946-4.649-17.82-8.523 0.774-2.324 0.774-4.649 0.774-7.747v-54.234h-11.621v52.685z" />
<glyph unicode="&#xe90f;" glyph-name="microphone" horiz-adv-x="1002" d="M501.029 314.758c73.874 0 133.851 59.977 133.851 133.851l0.731 267.703c0 73.874-59.977 133.851-133.851 133.851s-133.851-59.977-133.851-133.851v-267.703c-0.731-73.874 59.246-133.851 133.12-133.851zM738.011 449.341c0-133.851-113.371-227.474-236.983-227.474s-236.983 92.891-236.983 227.474h-75.337c0-152.137 121.417-277.943 267.703-299.886v-146.286h89.234v146.286c146.286 21.211 267.703 147.017 267.703 299.886h-75.337z" />
<glyph unicode="&#xe910;" glyph-name="participants" horiz-adv-x="1002" d="M334.263 768.976c0-49.283-39.624-89.234-88.503-89.234s-88.503 39.952-88.503 89.234c0 49.283 39.624 89.234 88.503 89.234s88.503-39.952 88.503-89.234zM588.8 711.924c0-49.283-39.624-89.234-88.503-89.234s-88.503 39.952-88.503 89.234c0 49.283 39.624 89.234 88.503 89.234s88.503-39.952 88.503-89.234zM403.017 588.313c-35.84 34.377-113.371 53.394-157.257 53.394-58.514 0-176.274-32.914-176.274-92.16v-29.989h236.251c8.046 32.914 52.663 56.32 97.28 68.754zM844.8 654.873c0-49.283-39.624-89.234-88.503-89.234s-88.503 39.952-88.503 89.234c0 49.283 39.624 89.234 88.503 89.234s88.503-39.952 88.503-89.234zM659.017 531.993c-35.84 34.377-113.371 53.394-157.257 53.394-58.514 0-176.274-32.914-176.274-92.16v-29.989h236.251c8.046 32.914 51.931 55.589 97.28 68.754zM756.297 527.604c-58.514 0-176.274-32.914-176.274-92.16v-29.989h352.549v29.989c0 59.246-117.76 92.16-176.274 92.16zM334.263 358.644c0-49.283-39.624-89.234-88.503-89.234s-88.503 39.952-88.503 89.234c0 49.283 39.624 89.234 88.503 89.234s88.503-39.952 88.503-89.234zM588.8 300.861c0-49.283-39.624-89.234-88.503-89.234s-88.503 39.952-88.503 89.234c0 49.283 39.624 89.234 88.503 89.234s88.503-39.952 88.503-89.234zM403.017 177.981c-35.84 34.377-113.371 53.394-157.257 53.394-58.514 0-176.274-32.914-176.274-92.16v-29.989h236.251c8.046 32.914 52.663 55.589 97.28 68.754zM844.8 243.81c0-49.283-39.624-89.234-88.503-89.234s-88.503 39.952-88.503 89.234c0 49.283 39.624 89.234 88.503 89.234s88.503-39.952 88.503-89.234zM659.017 120.93c-35.84 34.377-113.371 53.394-157.257 53.394-58.514 0-176.274-32.914-176.274-92.16v-29.989h236.251c8.046 32.914 51.931 56.32 97.28 68.754zM756.297 116.541c-58.514 0-176.274-32.914-176.274-92.16v-29.989h352.549v29.989c0 59.977-117.76 92.16-176.274 92.16z" />
<glyph unicode="&#xe911;" glyph-name="projector" horiz-adv-x="1002" d="M849.92 442.027c0-44.839-36.349-81.189-81.189-81.189s-81.189 36.349-81.189 81.189c0 44.839 36.349 81.189 81.189 81.189s81.189-36.349 81.189-81.189zM904.046 627.81h-806.034c-21.943 0-39.497-17.554-39.497-39.497v-292.571c0-21.943 17.554-39.497 39.497-39.497h32.183l29.257-30.72h130.926l27.794 30.72h367.177l29.257-30.72h130.926l27.794 30.72h31.451c21.943 0 39.497 17.554 39.497 39.497v292.571c-0.731 21.943-18.286 39.497-40.229 39.497zM768.731 315.49c-70.217 0-126.537 57.051-126.537 126.537s57.051 126.537 126.537 126.537 126.537-57.051 126.537-126.537-56.32-126.537-126.537-126.537z" />
<glyph unicode="&#xe912;" glyph-name="sound" horiz-adv-x="1002" d="M119.464 556.924v-261.173h169.729l211.832-217.753v696.679l-211.832-217.753h-169.729zM691.807 426.667c0 76.971-43.418 143.415-105.916 175.649v-349.984c62.498 30.919 105.916 97.363 105.916 174.335zM585.891 808.23v-89.47c122.364-37.497 211.832-153.94 211.832-292.092s-89.47-254.595-211.832-292.092v-89.47c169.729 39.472 296.698 195.386 296.698 381.563s-126.968 342.091-296.698 381.563z" />
<glyph unicode="&#xe913;" glyph-name="stand_cinema" horiz-adv-x="1002" d="M213.577 116.541c0-30.701-24.888-55.589-55.589-55.589s-55.589 24.888-55.589 55.589c0 30.701 24.888 55.589 55.589 55.589s55.589-24.888 55.589-55.589zM384.731 116.541c0-30.701-24.888-55.589-55.589-55.589s-55.589 24.888-55.589 55.589c0 30.701 24.888 55.589 55.589 55.589s55.589-24.888 55.589-55.589zM556.617 116.541c0-30.701-24.888-55.589-55.589-55.589s-55.589 24.888-55.589 55.589c0 30.701 24.888 55.589 55.589 55.589s55.589-24.888 55.589-55.589zM728.503 116.541c0-30.701-24.888-55.589-55.589-55.589s-55.589 24.888-55.589 55.589c0 30.701 24.888 55.589 55.589 55.589s55.589-24.888 55.589-55.589zM899.657 116.541c0-30.701-24.888-55.589-55.589-55.589s-55.589 24.888-55.589 55.589c0 30.701 24.888 55.589 55.589 55.589s55.589-24.888 55.589-55.589zM213.577 271.604c0-30.701-24.888-55.589-55.589-55.589s-55.589 24.888-55.589 55.589c0 30.701 24.888 55.589 55.589 55.589s55.589-24.888 55.589-55.589zM384.731 271.604c0-30.701-24.888-55.589-55.589-55.589s-55.589 24.888-55.589 55.589c0 30.701 24.888 55.589 55.589 55.589s55.589-24.888 55.589-55.589zM556.617 271.604c0-30.701-24.888-55.589-55.589-55.589s-55.589 24.888-55.589 55.589c0 30.701 24.888 55.589 55.589 55.589s55.589-24.888 55.589-55.589zM728.503 271.604c0-30.701-24.888-55.589-55.589-55.589s-55.589 24.888-55.589 55.589c0 30.701 24.888 55.589 55.589 55.589s55.589-24.888 55.589-55.589zM899.657 271.604c0-30.701-24.888-55.589-55.589-55.589s-55.589 24.888-55.589 55.589c0 30.701 24.888 55.589 55.589 55.589s55.589-24.888 55.589-55.589zM213.577 426.667c0-30.701-24.888-55.589-55.589-55.589s-55.589 24.888-55.589 55.589c0 30.701 24.888 55.589 55.589 55.589s55.589-24.888 55.589-55.589zM384.731 426.667c0-30.701-24.888-55.589-55.589-55.589s-55.589 24.888-55.589 55.589c0 30.701 24.888 55.589 55.589 55.589s55.589-24.888 55.589-55.589zM556.617 426.667c0-30.701-24.888-55.589-55.589-55.589s-55.589 24.888-55.589 55.589c0 30.701 24.888 55.589 55.589 55.589s55.589-24.888 55.589-55.589zM728.503 426.667c0-30.701-24.888-55.589-55.589-55.589s-55.589 24.888-55.589 55.589c0 30.701 24.888 55.589 55.589 55.589s55.589-24.888 55.589-55.589zM899.657 426.667c0-30.701-24.888-55.589-55.589-55.589s-55.589 24.888-55.589 55.589c0 30.701 24.888 55.589 55.589 55.589s55.589-24.888 55.589-55.589zM213.577 581.73c0-30.701-24.888-55.589-55.589-55.589s-55.589 24.888-55.589 55.589c0 30.701 24.888 55.589 55.589 55.589s55.589-24.888 55.589-55.589zM384.731 581.73c0-30.701-24.888-55.589-55.589-55.589s-55.589 24.888-55.589 55.589c0 30.701 24.888 55.589 55.589 55.589s55.589-24.888 55.589-55.589zM556.617 581.73c0-30.701-24.888-55.589-55.589-55.589s-55.589 24.888-55.589 55.589c0 30.701 24.888 55.589 55.589 55.589s55.589-24.888 55.589-55.589zM728.503 581.73c0-30.701-24.888-55.589-55.589-55.589s-55.589 24.888-55.589 55.589c0 30.701 24.888 55.589 55.589 55.589s55.589-24.888 55.589-55.589zM899.657 581.73c0-30.701-24.888-55.589-55.589-55.589s-55.589 24.888-55.589 55.589c0 30.701 24.888 55.589 55.589 55.589s55.589-24.888 55.589-55.589zM213.577 736.793c0-30.701-24.888-55.589-55.589-55.589s-55.589 24.888-55.589 55.589c0 30.701 24.888 55.589 55.589 55.589s55.589-24.888 55.589-55.589zM384.731 736.793c0-30.701-24.888-55.589-55.589-55.589s-55.589 24.888-55.589 55.589c0 30.701 24.888 55.589 55.589 55.589s55.589-24.888 55.589-55.589zM556.617 736.793c0-30.701-24.888-55.589-55.589-55.589s-55.589 24.888-55.589 55.589c0 30.701 24.888 55.589 55.589 55.589s55.589-24.888 55.589-55.589zM728.503 736.793c0-30.701-24.888-55.589-55.589-55.589s-55.589 24.888-55.589 55.589c0 30.701 24.888 55.589 55.589 55.589s55.589-24.888 55.589-55.589zM899.657 736.793c0-30.701-24.888-55.589-55.589-55.589s-55.589 24.888-55.589 55.589c0 30.701 24.888 55.589 55.589 55.589s55.589-24.888 55.589-55.589z" />
<glyph unicode="&#xe914;" glyph-name="stand_conference" horiz-adv-x="1002" d="M195.291 469.821c0-23.833-19.321-43.154-43.154-43.154s-43.154 19.321-43.154 43.154c0 23.833 19.321 43.154 43.154 43.154s43.154-19.321 43.154-43.154zM335.726 469.821c0-23.833-19.321-43.154-43.154-43.154s-43.154 19.321-43.154 43.154c0 23.833 19.321 43.154 43.154 43.154s43.154-19.321 43.154-43.154zM475.429 469.821c0-23.833-19.321-43.154-43.154-43.154s-43.154 19.321-43.154 43.154c0 23.833 19.321 43.154 43.154 43.154s43.154-19.321 43.154-43.154zM615.863 469.821c0-23.833-19.321-43.154-43.154-43.154s-43.154 19.321-43.154 43.154c0 23.833 19.321 43.154 43.154 43.154s43.154-19.321 43.154-43.154zM756.297 469.821c0-23.833-19.321-43.154-43.154-43.154s-43.154 19.321-43.154 43.154c0 23.833 19.321 43.154 43.154 43.154s43.154-19.321 43.154-43.154zM896 469.821c0-23.833-19.321-43.154-43.154-43.154s-43.154 19.321-43.154 43.154c0 23.833 19.321 43.154 43.154 43.154s43.154-19.321 43.154-43.154zM195.291 734.598c0-23.833-19.321-43.154-43.154-43.154s-43.154 19.321-43.154 43.154c0 23.833 19.321 43.154 43.154 43.154s43.154-19.321 43.154-43.154zM335.726 734.598c0-23.833-19.321-43.154-43.154-43.154s-43.154 19.321-43.154 43.154c0 23.833 19.321 43.154 43.154 43.154s43.154-19.321 43.154-43.154zM475.429 734.598c0-23.833-19.321-43.154-43.154-43.154s-43.154 19.321-43.154 43.154c0 23.833 19.321 43.154 43.154 43.154s43.154-19.321 43.154-43.154zM615.863 734.598c0-23.833-19.321-43.154-43.154-43.154s-43.154 19.321-43.154 43.154c0 23.833 19.321 43.154 43.154 43.154s43.154-19.321 43.154-43.154zM756.297 734.598c0-23.833-19.321-43.154-43.154-43.154s-43.154 19.321-43.154 43.154c0 23.833 19.321 43.154 43.154 43.154s43.154-19.321 43.154-43.154zM896 734.598c0-23.833-19.321-43.154-43.154-43.154s-43.154 19.321-43.154 43.154c0 23.833 19.321 43.154 43.154 43.154s43.154-19.321 43.154-43.154zM95.086 674.621h811.886v-137.509h-811.886v137.509z" />
<glyph unicode="&#xe915;" glyph-name="stand_desk" horiz-adv-x="1002" d="M239.909 169.204c0-32.721-26.525-59.246-59.246-59.246s-59.246 26.525-59.246 59.246c0 32.721 26.525 59.246 59.246 59.246s59.246-26.525 59.246-59.246zM430.811 169.204c0-32.721-26.525-59.246-59.246-59.246s-59.246 26.525-59.246 59.246c0 32.721 26.525 59.246 59.246 59.246s59.246-26.525 59.246-59.246zM102.4 385.707h347.429v-137.509h-347.429v137.509zM689.737 169.204c0-32.721-26.525-59.246-59.246-59.246s-59.246 26.525-59.246 59.246c0 32.721 26.525 59.246 59.246 59.246s59.246-26.525 59.246-59.246zM880.64 169.204c0-32.721-26.525-59.246-59.246-59.246s-59.246 26.525-59.246 59.246c0 32.721 26.525 59.246 59.246 59.246s59.246-26.525 59.246-59.246zM552.229 385.707h347.429v-137.509h-347.429v137.509zM239.909 570.027c0-32.721-26.525-59.246-59.246-59.246s-59.246 26.525-59.246 59.246c0 32.721 26.525 59.246 59.246 59.246s59.246-26.525 59.246-59.246zM430.811 570.027c0-32.721-26.525-59.246-59.246-59.246s-59.246 26.525-59.246 59.246c0 32.721 26.525 59.246 59.246 59.246s59.246-26.525 59.246-59.246zM102.4 787.261h347.429v-137.509h-347.429v137.509zM689.737 570.027c0-32.721-26.525-59.246-59.246-59.246s-59.246 26.525-59.246 59.246c0 32.721 26.525 59.246 59.246 59.246s59.246-26.525 59.246-59.246zM880.64 570.027c0-32.721-26.525-59.246-59.246-59.246s-59.246 26.525-59.246 59.246c0 32.721 26.525 59.246 59.246 59.246s59.246-26.525 59.246-59.246zM552.229 787.261h347.429v-137.509h-347.429v137.509z" />
<glyph unicode="&#xe916;" glyph-name="stand_lone" horiz-adv-x="1002" d="M256 53.638c0-18.178-14.736-32.914-32.914-32.914s-32.914 14.736-32.914 32.914c0 18.178 14.736 32.914 32.914 32.914s32.914-14.736 32.914-32.914zM357.669 53.638c0-18.178-14.736-32.914-32.914-32.914s-32.914 14.736-32.914 32.914c0 18.178 14.736 32.914 32.914 32.914s32.914-14.736 32.914-32.914zM357.669 331.581c0-18.178-14.736-32.914-32.914-32.914s-32.914 14.736-32.914 32.914c0 18.178 14.736 32.914 32.914 32.914s32.914-14.736 32.914-32.914zM256 331.581c0-18.178-14.736-32.914-32.914-32.914s-32.914 14.736-32.914 32.914c0 18.178 14.736 32.914 32.914 32.914s32.914-14.736 32.914-32.914zM182.126 284.77v-185.051h185.051v185.051zM168.229 243.078c0-18.178-14.736-32.914-32.914-32.914s-32.914 14.736-32.914 32.914c0 18.178 14.736 32.914 32.914 32.914s32.914-14.736 32.914-32.914zM168.229 141.41c0-18.178-14.736-32.914-32.914-32.914s-32.914 14.736-32.914 32.914c0 18.178 14.736 32.914 32.914 32.914s32.914-14.736 32.914-32.914zM446.171 141.41c0-18.178-14.736-32.914-32.914-32.914s-32.914 14.736-32.914 32.914c0 18.178 14.736 32.914 32.914 32.914s32.914-14.736 32.914-32.914zM446.171 243.078c0-18.178-14.736-32.914-32.914-32.914s-32.914 14.736-32.914 32.914c0 18.178 14.736 32.914 32.914 32.914s32.914-14.736 32.914-32.914zM708.754 53.638c0-18.178-14.736-32.914-32.914-32.914s-32.914 14.736-32.914 32.914c0 18.178 14.736 32.914 32.914 32.914s32.914-14.736 32.914-32.914zM810.423 53.638c0-18.178-14.736-32.914-32.914-32.914s-32.914 14.736-32.914 32.914c0 18.178 14.736 32.914 32.914 32.914s32.914-14.736 32.914-32.914zM810.423 331.581c0-18.178-14.736-32.914-32.914-32.914s-32.914 14.736-32.914 32.914c0 18.178 14.736 32.914 32.914 32.914s32.914-14.736 32.914-32.914zM708.754 331.581c0-18.178-14.736-32.914-32.914-32.914s-32.914 14.736-32.914 32.914c0 18.178 14.736 32.914 32.914 32.914s32.914-14.736 32.914-32.914zM634.88 284.77v-185.051h185.783v185.051zM621.714 243.078c0-18.178-14.736-32.914-32.914-32.914s-32.914 14.736-32.914 32.914c0 18.178 14.736 32.914 32.914 32.914s32.914-14.736 32.914-32.914zM621.714 141.41c0-18.178-14.736-32.914-32.914-32.914s-32.914 14.736-32.914 32.914c0 18.178 14.736 32.914 32.914 32.914s32.914-14.736 32.914-32.914zM899.657 141.41c0-18.178-14.736-32.914-32.914-32.914s-32.914 14.736-32.914 32.914c0 18.178 14.736 32.914 32.914 32.914s32.914-14.736 32.914-32.914zM899.657 243.078c0-18.178-14.736-32.914-32.914-32.914s-32.914 14.736-32.914 32.914c0 18.178 14.736 32.914 32.914 32.914s32.914-14.736 32.914-32.914zM256 507.124c0-18.178-14.736-32.914-32.914-32.914s-32.914 14.736-32.914 32.914c0 18.178 14.736 32.914 32.914 32.914s32.914-14.736 32.914-32.914zM357.669 507.124c0-18.178-14.736-32.914-32.914-32.914s-32.914 14.736-32.914 32.914c0 18.178 14.736 32.914 32.914 32.914s32.914-14.736 32.914-32.914zM357.669 785.067c0-18.178-14.736-32.914-32.914-32.914s-32.914 14.736-32.914 32.914c0 18.178 14.736 32.914 32.914 32.914s32.914-14.736 32.914-32.914zM256 785.067c0-18.178-14.736-32.914-32.914-32.914s-32.914 14.736-32.914 32.914c0 18.178 14.736 32.914 32.914 32.914s32.914-14.736 32.914-32.914zM182.126 738.256v-185.783h185.051v185.783zM168.229 695.833c0-18.178-14.736-32.914-32.914-32.914s-32.914 14.736-32.914 32.914c0 18.178 14.736 32.914 32.914 32.914s32.914-14.736 32.914-32.914zM168.229 594.164c0-18.178-14.736-32.914-32.914-32.914s-32.914 14.736-32.914 32.914c0 18.178 14.736 32.914 32.914 32.914s32.914-14.736 32.914-32.914zM446.171 594.164c0-18.178-14.736-32.914-32.914-32.914s-32.914 14.736-32.914 32.914c0 18.178 14.736 32.914 32.914 32.914s32.914-14.736 32.914-32.914zM446.171 695.833c0-18.178-14.736-32.914-32.914-32.914s-32.914 14.736-32.914 32.914c0 18.178 14.736 32.914 32.914 32.914s32.914-14.736 32.914-32.914zM708.754 507.124c0-18.178-14.736-32.914-32.914-32.914s-32.914 14.736-32.914 32.914c0 18.178 14.736 32.914 32.914 32.914s32.914-14.736 32.914-32.914zM810.423 507.124c0-18.178-14.736-32.914-32.914-32.914s-32.914 14.736-32.914 32.914c0 18.178 14.736 32.914 32.914 32.914s32.914-14.736 32.914-32.914zM810.423 785.067c0-18.178-14.736-32.914-32.914-32.914s-32.914 14.736-32.914 32.914c0 18.178 14.736 32.914 32.914 32.914s32.914-14.736 32.914-32.914zM708.754 785.067c0-18.178-14.736-32.914-32.914-32.914s-32.914 14.736-32.914 32.914c0 18.178 14.736 32.914 32.914 32.914s32.914-14.736 32.914-32.914zM634.88 738.256v-185.783h185.783v185.783zM621.714 695.833c0-18.178-14.736-32.914-32.914-32.914s-32.914 14.736-32.914 32.914c0 18.178 14.736 32.914 32.914 32.914s32.914-14.736 32.914-32.914zM621.714 594.164c0-18.178-14.736-32.914-32.914-32.914s-32.914 14.736-32.914 32.914c0 18.178 14.736 32.914 32.914 32.914s32.914-14.736 32.914-32.914zM899.657 594.164c0-18.178-14.736-32.914-32.914-32.914s-32.914 14.736-32.914 32.914c0 18.178 14.736 32.914 32.914 32.914s32.914-14.736 32.914-32.914zM899.657 695.833c0-18.178-14.736-32.914-32.914-32.914s-32.914 14.736-32.914 32.914c0 18.178 14.736 32.914 32.914 32.914s32.914-14.736 32.914-32.914z" />
<glyph unicode="&#xe917;" glyph-name="stand_panel" horiz-adv-x="1002" d="M897.463 431.056c0-21.41-17.356-38.766-38.766-38.766s-38.766 17.356-38.766 38.766c0 21.41 17.356 38.766 38.766 38.766s38.766-17.356 38.766-38.766zM778.24 431.056c0-21.41-17.356-38.766-38.766-38.766s-38.766 17.356-38.766 38.766c0 21.41 17.356 38.766 38.766 38.766s38.766-17.356 38.766-38.766zM658.286 431.056c0-21.41-17.356-38.766-38.766-38.766s-38.766 17.356-38.766 38.766c0 21.41 17.356 38.766 38.766 38.766s38.766-17.356 38.766-38.766zM539.063 431.056c0-21.41-17.356-38.766-38.766-38.766s-38.766 17.356-38.766 38.766c0 21.41 17.356 38.766 38.766 38.766s38.766-17.356 38.766-38.766zM419.84 431.056c0-21.41-17.356-38.766-38.766-38.766s-38.766 17.356-38.766 38.766c0 21.41 17.356 38.766 38.766 38.766s38.766-17.356 38.766-38.766zM897.463 322.804c0-21.41-17.356-38.766-38.766-38.766s-38.766 17.356-38.766 38.766c0 21.41 17.356 38.766 38.766 38.766s38.766-17.356 38.766-38.766zM778.24 322.804c0-21.41-17.356-38.766-38.766-38.766s-38.766 17.356-38.766 38.766c0 21.41 17.356 38.766 38.766 38.766s38.766-17.356 38.766-38.766zM658.286 322.804c0-21.41-17.356-38.766-38.766-38.766s-38.766 17.356-38.766 38.766c0 21.41 17.356 38.766 38.766 38.766s38.766-17.356 38.766-38.766zM539.063 322.804c0-21.41-17.356-38.766-38.766-38.766s-38.766 17.356-38.766 38.766c0 21.41 17.356 38.766 38.766 38.766s38.766-17.356 38.766-38.766zM419.84 322.804c0-21.41-17.356-38.766-38.766-38.766s-38.766 17.356-38.766 38.766c0 21.41 17.356 38.766 38.766 38.766s38.766-17.356 38.766-38.766zM897.463 214.553c0-21.41-17.356-38.766-38.766-38.766s-38.766 17.356-38.766 38.766c0 21.41 17.356 38.766 38.766 38.766s38.766-17.356 38.766-38.766zM778.24 214.553c0-21.41-17.356-38.766-38.766-38.766s-38.766 17.356-38.766 38.766c0 21.41 17.356 38.766 38.766 38.766s38.766-17.356 38.766-38.766zM658.286 214.553c0-21.41-17.356-38.766-38.766-38.766s-38.766 17.356-38.766 38.766c0 21.41 17.356 38.766 38.766 38.766s38.766-17.356 38.766-38.766zM539.063 214.553c0-21.41-17.356-38.766-38.766-38.766s-38.766 17.356-38.766 38.766c0 21.41 17.356 38.766 38.766 38.766s38.766-17.356 38.766-38.766zM419.84 214.553c0-21.41-17.356-38.766-38.766-38.766s-38.766 17.356-38.766 38.766c0 21.41 17.356 38.766 38.766 38.766s38.766-17.356 38.766-38.766zM897.463 107.033c0-21.41-17.356-38.766-38.766-38.766s-38.766 17.356-38.766 38.766c0 21.41 17.356 38.766 38.766 38.766s38.766-17.356 38.766-38.766zM778.24 107.033c0-21.41-17.356-38.766-38.766-38.766s-38.766 17.356-38.766 38.766c0 21.41 17.356 38.766 38.766 38.766s38.766-17.356 38.766-38.766zM658.286 107.033c0-21.41-17.356-38.766-38.766-38.766s-38.766 17.356-38.766 38.766c0 21.41 17.356 38.766 38.766 38.766s38.766-17.356 38.766-38.766zM539.063 107.033c0-21.41-17.356-38.766-38.766-38.766s-38.766 17.356-38.766 38.766c0 21.41 17.356 38.766 38.766 38.766s38.766-17.356 38.766-38.766zM419.84 107.033c0-21.41-17.356-38.766-38.766-38.766s-38.766 17.356-38.766 38.766c0 21.41 17.356 38.766 38.766 38.766s38.766-17.356 38.766-38.766zM300.617 431.056c0-21.41-17.356-38.766-38.766-38.766s-38.766 17.356-38.766 38.766c0 21.41 17.356 38.766 38.766 38.766s38.766-17.356 38.766-38.766zM300.617 322.804c0-21.41-17.356-38.766-38.766-38.766s-38.766 17.356-38.766 38.766c0 21.41 17.356 38.766 38.766 38.766s38.766-17.356 38.766-38.766zM300.617 214.553c0-21.41-17.356-38.766-38.766-38.766s-38.766 17.356-38.766 38.766c0 21.41 17.356 38.766 38.766 38.766s38.766-17.356 38.766-38.766zM300.617 107.033c0-21.41-17.356-38.766-38.766-38.766s-38.766 17.356-38.766 38.766c0 21.41 17.356 38.766 38.766 38.766s38.766-17.356 38.766-38.766zM182.126 431.056c0-21.41-17.356-38.766-38.766-38.766s-38.766 17.356-38.766 38.766c0 21.41 17.356 38.766 38.766 38.766s38.766-17.356 38.766-38.766zM182.126 322.804c0-21.41-17.356-38.766-38.766-38.766s-38.766 17.356-38.766 38.766c0 21.41 17.356 38.766 38.766 38.766s38.766-17.356 38.766-38.766zM182.126 214.553c0-21.41-17.356-38.766-38.766-38.766s-38.766 17.356-38.766 38.766c0 21.41 17.356 38.766 38.766 38.766s38.766-17.356 38.766-38.766zM182.126 107.033c0-21.41-17.356-38.766-38.766-38.766s-38.766 17.356-38.766 38.766c0 21.41 17.356 38.766 38.766 38.766s38.766-17.356 38.766-38.766zM829.44 748.496c0-20.198-16.374-36.571-36.571-36.571s-36.571 16.374-36.571 36.571c0 20.198 16.374 36.571 36.571 36.571s36.571-16.374 36.571-36.571zM711.68 748.496c0-20.198-16.374-36.571-36.571-36.571s-36.571 16.374-36.571 36.571c0 20.198 16.374 36.571 36.571 36.571s36.571-16.374 36.571-36.571zM594.651 748.496c0-20.198-16.374-36.571-36.571-36.571s-36.571 16.374-36.571 36.571c0 20.198 16.374 36.571 36.571 36.571s36.571-16.374 36.571-36.571zM476.891 748.496c0-20.198-16.374-36.571-36.571-36.571s-36.571 16.374-36.571 36.571c0 20.198 16.374 36.571 36.571 36.571s36.571-16.374 36.571-36.571zM359.131 748.496c0-20.198-16.374-36.571-36.571-36.571s-36.571 16.374-36.571 36.571c0 20.198 16.374 36.571 36.571 36.571s36.571-16.374 36.571-36.571zM241.371 748.496c0-20.198-16.374-36.571-36.571-36.571s-36.571 16.374-36.571 36.571c0 20.198 16.374 36.571 36.571 36.571s36.571-16.374 36.571-36.571zM841.098 577.529h-680.96v115.566h680.96v-115.566z" />
<glyph unicode="&#xe918;" glyph-name="stand_reception" horiz-adv-x="1002" d="M610.743 69.73c-8.046 5.851-57.051 16.091-72.411 27.794-34.377 27.794-24.137 73.874-24.137 111.909 0 34.377 1.463 68.754 2.194 103.863 0 10.971 0 22.674 2.926 32.914 2.194 7.314 6.583 13.166 11.703 18.286 11.703 11.703 20.48 24.869 28.526 39.497 10.971 20.48 19.017 42.423 25.6 65.097 13.897 49.006 20.48 100.206 24.137 150.674 2.926 43.154 2.926 86.309 0.731 129.463-0.731 18.286-2.194 36.571-3.657 54.857l-206.263 0.731c-2.194-18.286-2.926-36.571-4.389-54.857-2.194-43.154-2.194-86.309 0-129.463 2.926-50.469 8.777-101.669 22.674-150.674 6.583-22.674 14.629-44.617 24.869-65.097 7.314-14.629 16.823-27.794 27.794-39.497 5.12-5.12 10.24-10.971 11.703-18.286 2.926-10.24 2.194-21.943 2.194-32.914 0.731-34.377 1.463-68.754 1.463-103.863 0-38.034 9.509-84.846-24.869-111.909-14.629-11.703-68.754-21.943-73.143-25.6-1.463-1.463-2.194-2.926-0.731-5.12 9.509-18.286 82.651-16.823 112.64-16.823 27.794 0 113.371-3.657 113.371 16.091 0.731 0.731-2.926 2.926-2.926 2.926zM415.451 552.473c0 0 28.526 8.046 68.754-18.286 40.96-26.331 98.743 14.629 108.251 41.691 0 0-30.72-201.143-87.771-199.68-51.2 0.731-76.069 95.817-89.234 176.274z" />
<glyph unicode="&#xe919;" glyph-name="stand_u" horiz-adv-x="1002" d="M262.583 128.244c0-17.774-14.409-32.183-32.183-32.183s-32.183 14.409-32.183 32.183c0 17.774 14.409 32.183 32.183 32.183s32.183-14.409 32.183-32.183zM353.28 128.244c0-17.774-14.409-32.183-32.183-32.183s-32.183 14.409-32.183 32.183c0 17.774 14.409 32.183 32.183 32.183s32.183-14.409 32.183-32.183zM713.874 128.244c0-17.774-14.409-32.183-32.183-32.183s-32.183 14.409-32.183 32.183c0 17.774 14.409 32.183 32.183 32.183s32.183-14.409 32.183-32.183zM804.571 128.244c0-17.774-14.409-32.183-32.183-32.183s-32.183 14.409-32.183 32.183c0 17.774 14.409 32.183 32.183 32.183s32.183-14.409 32.183-32.183zM533.943 128.244c0-17.774-14.409-32.183-32.183-32.183s-32.183 14.409-32.183 32.183c0 17.774 14.409 32.183 32.183 32.183s32.183-14.409 32.183-32.183zM443.246 128.244c0-17.774-14.409-32.183-32.183-32.183s-32.183 14.409-32.183 32.183c0 17.774 14.409 32.183 32.183 32.183s32.183-14.409 32.183-32.183zM623.909 128.244c0-17.774-14.409-32.183-32.183-32.183s-32.183 14.409-32.183 32.183c0 17.774 14.409 32.183 32.183 32.183s32.183-14.409 32.183-32.183zM632.686 786.53v-432.274h-261.12v432.274h-181.394v-613.669h623.909v613.669zM166.766 746.301c0-17.774-14.409-32.183-32.183-32.183s-32.183 14.409-32.183 32.183c0 17.774 14.409 32.183 32.183 32.183s32.183-14.409 32.183-32.183zM166.766 656.336c0-17.774-14.409-32.183-32.183-32.183s-32.183 14.409-32.183 32.183c0 17.774 14.409 32.183 32.183 32.183s32.183-14.409 32.183-32.183zM166.766 295.010c0-17.774-14.409-32.183-32.183-32.183s-32.183 14.409-32.183 32.183c0 17.774 14.409 32.183 32.183 32.183s32.183-14.409 32.183-32.183zM166.766 205.044c0-17.774-14.409-32.183-32.183-32.183s-32.183 14.409-32.183 32.183c0 17.774 14.409 32.183 32.183 32.183s32.183-14.409 32.183-32.183zM166.766 475.673c0-17.774-14.409-32.183-32.183-32.183s-32.183 14.409-32.183 32.183c0 17.774 14.409 32.183 32.183 32.183s32.183-14.409 32.183-32.183zM166.766 565.638c0-17.774-14.409-32.183-32.183-32.183s-32.183 14.409-32.183 32.183c0 17.774 14.409 32.183 32.183 32.183s32.183-14.409 32.183-32.183zM166.766 385.707c0-17.774-14.409-32.183-32.183-32.183s-32.183 14.409-32.183 32.183c0 17.774 14.409 32.183 32.183 32.183s32.183-14.409 32.183-32.183zM899.657 746.301c0-17.774-14.409-32.183-32.183-32.183s-32.183 14.409-32.183 32.183c0 17.774 14.409 32.183 32.183 32.183s32.183-14.409 32.183-32.183zM899.657 656.336c0-17.774-14.409-32.183-32.183-32.183s-32.183 14.409-32.183 32.183c0 17.774 14.409 32.183 32.183 32.183s32.183-14.409 32.183-32.183zM899.657 295.010c0-17.774-14.409-32.183-32.183-32.183s-32.183 14.409-32.183 32.183c0 17.774 14.409 32.183 32.183 32.183s32.183-14.409 32.183-32.183zM899.657 205.044c0-17.774-14.409-32.183-32.183-32.183s-32.183 14.409-32.183 32.183c0 17.774 14.409 32.183 32.183 32.183s32.183-14.409 32.183-32.183zM899.657 475.673c0-17.774-14.409-32.183-32.183-32.183s-32.183 14.409-32.183 32.183c0 17.774 14.409 32.183 32.183 32.183s32.183-14.409 32.183-32.183zM899.657 565.638c0-17.774-14.409-32.183-32.183-32.183s-32.183 14.409-32.183 32.183c0 17.774 14.409 32.183 32.183 32.183s32.183-14.409 32.183-32.183zM899.657 385.707c0-17.774-14.409-32.183-32.183-32.183s-32.183 14.409-32.183 32.183c0 17.774 14.409 32.183 32.183 32.183s32.183-14.409 32.183-32.183z" />
<glyph unicode="&#xe91a;" glyph-name="technician" horiz-adv-x="1002" d="M873.373 167.192l-360.024 360.024c9.082 22.702 14.273 47.352 14.273 73.303 0 111.574-90.167 202.392-202.392 202.392-27.893 0-53.839-5.839-77.841-15.568l116.118-116.118c7.134-7.134 7.134-19.459 0-26.599l-84.328-85.629c-7.134-7.134-19.459-7.134-26.599 0l-114.817 114.817c-9.082-22.702-14.273-47.352-14.273-73.303 0-111.574 90.814-202.392 202.392-202.392 27.893 0 53.839 5.839 77.841 15.568l358.077-358.077c7.134-7.134 19.459-7.134 26.599 0l84.98 84.98c7.134 7.786 7.134 19.459 0 26.599z" />
<glyph unicode="&#xe91b;" glyph-name="teleloop" horiz-adv-x="1002" d="M631.223 321.341c66.56 46.811 106.057 122.88 106.057 204.8 0 138.24-112.64 250.149-250.149 250.149-124.343 0-228.206-89.234-247.223-212.114-2.194-11.703 6.583-22.674 18.286-24.869s22.674 6.583 24.869 18.286c15.36 99.474 103.131 174.811 204.8 174.811 114.103 0 206.994-92.891 206.994-206.994 0-59.246-25.6-115.566-69.486-154.331 0 0-0.731 0-0.731 0-8.046-4.389-15.36-10.24-21.943-17.554-2.194-1.463-4.389-4.389-5.851-6.583-16.091-19.749-26.331-46.080-27.794-73.143-1.463-25.6 5.12-49.737 18.286-71.68-3.657-40.96-38.034-72.411-79.726-72.411-38.766 0-71.68 27.794-78.994 65.829-2.194 11.703-13.166 19.749-24.869 17.554s-19.749-13.166-17.554-24.869c10.971-58.514 62.171-100.937 121.417-100.937 68.023 0 123.611 55.589 123.611 123.611 0 6.583-2.926 12.434-8.046 16.091-8.046 13.897-12.434 29.257-11.703 45.349 1.463 18.286 8.777 36.571 19.749 49.006zM635.611 507.856c-11.703 0-21.943 9.509-21.943 21.943 0 70.217-57.051 126.537-126.537 126.537-64.366 0-117.76-47.543-125.806-111.177-1.463-11.703-12.434-20.48-24.137-19.017s-20.48 12.434-19.017 24.137c10.24 84.846 82.651 149.211 168.96 149.211 93.623 0 169.691-76.069 169.691-169.691 0-12.434-9.509-21.943-21.211-21.943zM736.549 68.998h-32.183v124.343h-37.303v18.286h106.789v-18.286h-37.303v-124.343zM739.474 654.873l94.354 95.086-35.109 35.109-87.771-78.994c9.509-16.091 23.406-34.377 28.526-51.2zM432.274 412.77c-2.194 0.731-3.657 0.731-5.851 1.463l-258.194-260.389 35.109-35.109 258.194 260.389-29.257 33.646z" />
<glyph unicode="&#xe91c;" glyph-name="tvscreen" horiz-adv-x="1002" d="M972.8 139.947h-943.543v573.44h943.543v-573.44zM67.291 177.981h866.743v497.371h-866.743v-497.371zM256.040 347.004l484.15 177.489 6.546-17.855-484.15-177.489-6.546 17.855z" />
<glyph unicode="&#xe91d;" glyph-name="wardrobe" horiz-adv-x="1002" d="M528.18 377.644v63.352c59.581 12.067 104.832 67.123 101.061 131.229-3.77 64.86-60.335 118.407-125.95 118.407-46.005 0-86.731-24.134-109.358-62.599-7.542-12.821-1.509-29.414 12.821-33.938l4.525-1.509c10.558-3.018 21.117 1.509 27.15 11.312 15.838 26.397 47.514 40.726 80.699 33.938 27.905-6.033 51.284-27.905 57.318-55.811 11.312-49.023-26.397-93.519-73.157-93.519h-25.643v-109.358l-456.285-154.609c-16.592-5.279-25.643-23.38-19.609-39.972v0c5.279-16.592 23.38-25.643 39.972-19.609l459.302 156.118 459.302-156.118c16.592-5.279 34.693 3.018 39.972 19.609v0c5.279 16.592-3.018 34.693-19.609 39.972l-452.514 153.1z" />
<glyph unicode="&#xe91e;" glyph-name="whiteboard" horiz-adv-x="1002" d="M930.377 196.998h-870.4v529.554h870.4v-529.554zM95.086 232.838h799.451v458.606h-799.451v-458.606zM21.943 161.89h958.171v-35.109h-958.171v35.109zM741.669 638.050c0-6.463-5.24-11.703-11.703-11.703s-11.703 5.24-11.703 11.703c0 6.463 5.24 11.703 11.703 11.703s11.703-5.24 11.703-11.703zM795.063 608.793c0-6.463-5.24-11.703-11.703-11.703s-11.703 5.24-11.703 11.703c0 6.463 5.24 11.703 11.703 11.703s11.703-5.24 11.703-11.703zM729.966 579.536c0-6.463-5.24-11.703-11.703-11.703s-11.703 5.24-11.703 11.703c0 6.463 5.24 11.703 11.703 11.703s11.703-5.24 11.703-11.703z" />
<glyph unicode="&#xe91f;" glyph-name="diamond" d="M936.96 646.827c-25.6 30.72-117.76 128-117.76 128s-5.12 15.36-61.44 25.6c-51.2 5.12-153.6 20.48-250.88 20.48v0c-97.28 0-199.68-10.24-250.88-20.48-46.080-10.24-51.2-25.6-51.2-25.6s-92.16-97.28-117.76-128c-25.6-20.48-15.36-40.96-15.36-40.96s409.6-588.8 414.72-604.16c10.24-15.36 20.48-10.24 20.48-10.24v0c0 0 15.36 0 25.6 10.24 10.24 15.36 414.72 604.16 414.72 604.16s15.36 20.48-10.24 40.96zM803.84 738.987l87.040-97.28-133.12-20.48-46.080 102.4 92.16 15.36zM389.12 713.387h256l40.96-102.4h-343.040l46.080 102.4zM225.28 738.987l92.16-15.36-46.080-107.52-133.12 20.48 87.040 102.4zM138.24 590.507l133.12-20.48 133.12-368.64-266.24 389.12zM517.12 93.867l-174.080 465.92h343.040l-168.96-465.92zM624.64 196.267l133.12 368.64 133.12 20.48-266.24-389.12z" />
<glyph unicode="юдаюда" glyph-name="diamond" d="M936.96 646.827c-25.6 30.72-117.76 128-117.76 128s-5.12 15.36-61.44 25.6c-51.2 5.12-153.6 20.48-250.88 20.48v0c-97.28 0-199.68-10.24-250.88-20.48-46.080-10.24-51.2-25.6-51.2-25.6s-92.16-97.28-117.76-128c-25.6-20.48-15.36-40.96-15.36-40.96s409.6-588.8 414.72-604.16c10.24-15.36 20.48-10.24 20.48-10.24v0c0 0 15.36 0 25.6 10.24 10.24 15.36 414.72 604.16 414.72 604.16s15.36 20.48-10.24 40.96zM803.84 738.987l87.040-97.28-133.12-20.48-46.080 102.4 92.16 15.36zM389.12 713.387h256l40.96-102.4h-343.040l46.080 102.4zM225.28 738.987l92.16-15.36-46.080-107.52-133.12 20.48 87.040 102.4zM138.24 590.507l133.12-20.48 133.12-368.64-266.24 389.12zM517.12 93.867l-174.080 465.92h343.040l-168.96-465.92zM624.64 196.267l133.12 368.64 133.12 20.48-266.24-389.12z" />
<glyph unicode="rdl_zip" glyph-name="zip" d="M710.654 387.754h-40.96v-124.928h45.056c47.104 0 65.535 20.481 65.535 63.489 0 47.104-18.432 61.44-69.632 61.44zM614.399 938.666h-409.599c-57.344 0-102.4-45.056-102.4-102.4v-819.2c0-57.344 45.056-102.4 102.4-102.4h614.399c57.344 0 102.4 45.056 102.4 102.4v614.399l-307.2 307.2zM417.791 395.947l-155.648-260.096h155.648v-57.344h-233.472v49.153l155.648 260.096h-147.456v57.344h225.279v-49.153zM542.719 76.459h-65.535v368.639h65.535v-368.639zM563.199 862.89l282.623-282.623h-282.623v282.623zM716.799 203.434h-47.104v-126.976h-65.535v368.639h108.543c83.968 0 133.12-24.576 133.12-120.833 0-86.016-47.104-120.833-129.024-120.833z" />
<glyph unicode="rdl_youtube" glyph-name="youtube" d="M410.055 272.613l267.328 154.053-267.328 154.053v-308.106zM1003.611 673.604c6.796-24.92 11.327-56.638 13.593-97.416 4.531-40.779 4.531-77.027 4.531-106.477l2.266-43.045c0-113.274-9.062-194.831-22.655-246.938-13.593-45.309-43.045-77.027-88.354-88.354-24.92-6.796-67.965-11.327-135.929-13.593-65.699-4.531-126.867-4.531-183.504-4.531l-81.557-2.266c-215.221 0-348.885 9.062-400.991 22.655-45.309 13.593-77.027 43.045-88.354 88.354-6.796 24.92-11.327 56.638-13.593 97.416-4.531 38.513-6.796 72.495-6.796 104.213l-2.266 43.045c0 113.274 9.062 194.831 22.655 246.938 13.593 45.309 43.045 77.027 88.354 88.354 24.92 6.796 67.965 11.327 135.929 13.593 65.699 4.531 126.867 4.531 183.504 4.531l81.557 2.266c215.221 0 348.885-9.062 400.991-22.655 47.575-9.062 77.027-38.513 90.62-86.088z" />
<glyph unicode="rdl_xls" glyph-name="xls" d="M614.4 938.668h-409.599c-57.344 0-102.4-45.056-102.4-102.4v-819.2c0-57.344 45.056-102.4 102.4-102.4h614.399c57.344 0 102.4 45.056 102.4 102.4v614.399l-307.2 307.2zM335.873 123.564l-49.153 108.543h-2.048l-49.153-108.543h-59.392l75.776 157.696-71.68 147.456h59.392l45.056-100.352h2.048l45.056 100.352h59.392l-71.68-147.456 75.776-157.696h-59.392zM614.4 123.564h-172.032v305.152h55.296v-258.048h116.736v-47.104zM737.281 119.468c-47.104 0-79.871 16.384-104.448 32.768l24.576 38.912c24.576-12.288 51.199-22.527 77.825-22.527 38.912 0 51.199 18.432 51.199 38.912 0 73.728-143.36 30.72-143.36 137.215 0 57.344 40.96 86.016 98.304 86.016 36.863 0 67.584-12.288 90.112-28.672l-24.576-40.96c-24.576 12.288-45.056 20.481-69.632 20.481-32.768 0-40.96-16.384-40.96-36.863 0-59.392 143.36-24.576 143.36-137.215 0-55.296-43.008-88.064-102.4-88.064zM563.201 580.268v282.623l282.623-282.623h-282.623z" />
<glyph unicode="rdl_whiteboard" glyph-name="whiteboard" horiz-adv-x="1002" d="M930.377 196.998h-870.4v529.554h870.4v-529.554zM95.086 232.838h799.451v458.606h-799.451v-458.606zM21.943 161.89h958.171v-35.109h-958.171v35.109zM741.669 638.050c0-6.463-5.24-11.703-11.703-11.703s-11.703 5.24-11.703 11.703c0 6.463 5.24 11.703 11.703 11.703s11.703-5.24 11.703-11.703zM795.063 608.793c0-6.463-5.24-11.703-11.703-11.703s-11.703 5.24-11.703 11.703c0 6.463 5.24 11.703 11.703 11.703s11.703-5.24 11.703-11.703zM729.966 579.536c0-6.463-5.24-11.703-11.703-11.703s-11.703 5.24-11.703 11.703c0 6.463 5.24 11.703 11.703 11.703s11.703-5.24 11.703-11.703z" />
<glyph unicode="rdl_wardrobe" glyph-name="wardrobe" horiz-adv-x="1002" d="M528.18 377.644v63.352c59.581 12.067 104.832 67.123 101.061 131.229-3.77 64.86-60.335 118.407-125.95 118.407-46.005 0-86.731-24.134-109.358-62.599-7.542-12.821-1.509-29.414 12.821-33.938l4.525-1.509c10.558-3.018 21.117 1.509 27.15 11.312 15.838 26.397 47.514 40.726 80.699 33.938 27.905-6.033 51.284-27.905 57.318-55.811 11.312-49.023-26.397-93.519-73.157-93.519h-25.643v-109.358l-456.285-154.609c-16.592-5.279-25.643-23.38-19.609-39.972v0c5.279-16.592 23.38-25.643 39.972-19.609l459.302 156.118 459.302-156.118c16.592-5.279 34.693 3.018 39.972 19.609v0c5.279 16.592-3.018 34.693-19.609 39.972l-452.514 153.1z" />
<glyph unicode="rdl_twitter" glyph-name="twitter" d="M1019.126 728.232c-35.202-16.428-75.098-28.162-114.994-32.855 39.896 25.814 72.752 63.365 86.833 110.3-37.549-23.469-82.138-39.896-126.728-49.283-35.202 42.243-86.833 65.711-145.502 65.711-110.3 0-199.48-89.179-199.48-199.48 0-16.428 2.347-30.509 4.693-44.59-166.624 9.388-312.127 86.833-410.694 208.866-16.428-28.162-28.162-63.365-28.162-100.914 0-70.405 35.202-131.421 89.179-166.624-32.855 0-63.365 9.388-91.526 23.469 0 0 0 0 0-2.347 0-96.219 68.057-178.359 159.584-194.786-16.428-4.693-35.202-7.040-51.631-7.040-11.734 0-25.814 2.347-37.549 4.693 25.814-79.792 98.567-138.462 185.399-138.462-65.711-56.323-150.197-86.833-244.069-86.833-16.428 0-30.509 0-46.936 2.347 89.179-56.323 194.786-89.179 307.433-89.179 366.104 0 567.93 305.087 567.93 567.93 0 9.388 0 16.428 0 25.814 35.202 28.162 70.405 63.365 96.219 103.259z" />
<glyph unicode="rdl_tvscreen" glyph-name="tvscreen" horiz-adv-x="1002" d="M972.8 139.947h-943.543v573.44h943.543v-573.44zM67.291 177.981h866.743v497.371h-866.743v-497.371zM256.040 347.004l484.15 177.489 6.546-17.855-484.15-177.489-6.546 17.855z" />
<glyph unicode="rdl_teleloop" glyph-name="teleloop" horiz-adv-x="1002" d="M631.223 321.341c66.56 46.811 106.057 122.88 106.057 204.8 0 138.24-112.64 250.149-250.149 250.149-124.343 0-228.206-89.234-247.223-212.114-2.194-11.703 6.583-22.674 18.286-24.869s22.674 6.583 24.869 18.286c15.36 99.474 103.131 174.811 204.8 174.811 114.103 0 206.994-92.891 206.994-206.994 0-59.246-25.6-115.566-69.486-154.331 0 0-0.731 0-0.731 0-8.046-4.389-15.36-10.24-21.943-17.554-2.194-1.463-4.389-4.389-5.851-6.583-16.091-19.749-26.331-46.080-27.794-73.143-1.463-25.6 5.12-49.737 18.286-71.68-3.657-40.96-38.034-72.411-79.726-72.411-38.766 0-71.68 27.794-78.994 65.829-2.194 11.703-13.166 19.749-24.869 17.554s-19.749-13.166-17.554-24.869c10.971-58.514 62.171-100.937 121.417-100.937 68.023 0 123.611 55.589 123.611 123.611 0 6.583-2.926 12.434-8.046 16.091-8.046 13.897-12.434 29.257-11.703 45.349 1.463 18.286 8.777 36.571 19.749 49.006zM635.611 507.856c-11.703 0-21.943 9.509-21.943 21.943 0 70.217-57.051 126.537-126.537 126.537-64.366 0-117.76-47.543-125.806-111.177-1.463-11.703-12.434-20.48-24.137-19.017s-20.48 12.434-19.017 24.137c10.24 84.846 82.651 149.211 168.96 149.211 93.623 0 169.691-76.069 169.691-169.691 0-12.434-9.509-21.943-21.211-21.943zM736.549 68.998h-32.183v124.343h-37.303v18.286h106.789v-18.286h-37.303v-124.343zM739.474 654.873l94.354 95.086-35.109 35.109-87.771-78.994c9.509-16.091 23.406-34.377 28.526-51.2zM432.274 412.77c-2.194 0.731-3.657 0.731-5.851 1.463l-258.194-260.389 35.109-35.109 258.194 260.389-29.257 33.646z" />
<glyph unicode="rdl_technician" glyph-name="technician" horiz-adv-x="1002" d="M873.373 167.192l-360.024 360.024c9.082 22.702 14.273 47.352 14.273 73.303 0 111.574-90.167 202.392-202.392 202.392-27.893 0-53.839-5.839-77.841-15.568l116.118-116.118c7.134-7.134 7.134-19.459 0-26.599l-84.328-85.629c-7.134-7.134-19.459-7.134-26.599 0l-114.817 114.817c-9.082-22.702-14.273-47.352-14.273-73.303 0-111.574 90.814-202.392 202.392-202.392 27.893 0 53.839 5.839 77.841 15.568l358.077-358.077c7.134-7.134 19.459-7.134 26.599 0l84.98 84.98c7.134 7.786 7.134 19.459 0 26.599z" />
<glyph unicode="rdl_stand_u" glyph-name="stand_u" horiz-adv-x="1002" d="M262.583 128.244c0-17.774-14.409-32.183-32.183-32.183s-32.183 14.409-32.183 32.183c0 17.774 14.409 32.183 32.183 32.183s32.183-14.409 32.183-32.183zM353.28 128.244c0-17.774-14.409-32.183-32.183-32.183s-32.183 14.409-32.183 32.183c0 17.774 14.409 32.183 32.183 32.183s32.183-14.409 32.183-32.183zM713.874 128.244c0-17.774-14.409-32.183-32.183-32.183s-32.183 14.409-32.183 32.183c0 17.774 14.409 32.183 32.183 32.183s32.183-14.409 32.183-32.183zM804.571 128.244c0-17.774-14.409-32.183-32.183-32.183s-32.183 14.409-32.183 32.183c0 17.774 14.409 32.183 32.183 32.183s32.183-14.409 32.183-32.183zM533.943 128.244c0-17.774-14.409-32.183-32.183-32.183s-32.183 14.409-32.183 32.183c0 17.774 14.409 32.183 32.183 32.183s32.183-14.409 32.183-32.183zM443.246 128.244c0-17.774-14.409-32.183-32.183-32.183s-32.183 14.409-32.183 32.183c0 17.774 14.409 32.183 32.183 32.183s32.183-14.409 32.183-32.183zM623.909 128.244c0-17.774-14.409-32.183-32.183-32.183s-32.183 14.409-32.183 32.183c0 17.774 14.409 32.183 32.183 32.183s32.183-14.409 32.183-32.183zM632.686 786.53v-432.274h-261.12v432.274h-181.394v-613.669h623.909v613.669zM166.766 746.301c0-17.774-14.409-32.183-32.183-32.183s-32.183 14.409-32.183 32.183c0 17.774 14.409 32.183 32.183 32.183s32.183-14.409 32.183-32.183zM166.766 656.336c0-17.774-14.409-32.183-32.183-32.183s-32.183 14.409-32.183 32.183c0 17.774 14.409 32.183 32.183 32.183s32.183-14.409 32.183-32.183zM166.766 295.010c0-17.774-14.409-32.183-32.183-32.183s-32.183 14.409-32.183 32.183c0 17.774 14.409 32.183 32.183 32.183s32.183-14.409 32.183-32.183zM166.766 205.044c0-17.774-14.409-32.183-32.183-32.183s-32.183 14.409-32.183 32.183c0 17.774 14.409 32.183 32.183 32.183s32.183-14.409 32.183-32.183zM166.766 475.673c0-17.774-14.409-32.183-32.183-32.183s-32.183 14.409-32.183 32.183c0 17.774 14.409 32.183 32.183 32.183s32.183-14.409 32.183-32.183zM166.766 565.638c0-17.774-14.409-32.183-32.183-32.183s-32.183 14.409-32.183 32.183c0 17.774 14.409 32.183 32.183 32.183s32.183-14.409 32.183-32.183zM166.766 385.707c0-17.774-14.409-32.183-32.183-32.183s-32.183 14.409-32.183 32.183c0 17.774 14.409 32.183 32.183 32.183s32.183-14.409 32.183-32.183zM899.657 746.301c0-17.774-14.409-32.183-32.183-32.183s-32.183 14.409-32.183 32.183c0 17.774 14.409 32.183 32.183 32.183s32.183-14.409 32.183-32.183zM899.657 656.336c0-17.774-14.409-32.183-32.183-32.183s-32.183 14.409-32.183 32.183c0 17.774 14.409 32.183 32.183 32.183s32.183-14.409 32.183-32.183zM899.657 295.010c0-17.774-14.409-32.183-32.183-32.183s-32.183 14.409-32.183 32.183c0 17.774 14.409 32.183 32.183 32.183s32.183-14.409 32.183-32.183zM899.657 205.044c0-17.774-14.409-32.183-32.183-32.183s-32.183 14.409-32.183 32.183c0 17.774 14.409 32.183 32.183 32.183s32.183-14.409 32.183-32.183zM899.657 475.673c0-17.774-14.409-32.183-32.183-32.183s-32.183 14.409-32.183 32.183c0 17.774 14.409 32.183 32.183 32.183s32.183-14.409 32.183-32.183zM899.657 565.638c0-17.774-14.409-32.183-32.183-32.183s-32.183 14.409-32.183 32.183c0 17.774 14.409 32.183 32.183 32.183s32.183-14.409 32.183-32.183zM899.657 385.707c0-17.774-14.409-32.183-32.183-32.183s-32.183 14.409-32.183 32.183c0 17.774 14.409 32.183 32.183 32.183s32.183-14.409 32.183-32.183z" />
<glyph unicode="rdl_stand_reception" glyph-name="stand_reception" horiz-adv-x="1002" d="M610.743 69.73c-8.046 5.851-57.051 16.091-72.411 27.794-34.377 27.794-24.137 73.874-24.137 111.909 0 34.377 1.463 68.754 2.194 103.863 0 10.971 0 22.674 2.926 32.914 2.194 7.314 6.583 13.166 11.703 18.286 11.703 11.703 20.48 24.869 28.526 39.497 10.971 20.48 19.017 42.423 25.6 65.097 13.897 49.006 20.48 100.206 24.137 150.674 2.926 43.154 2.926 86.309 0.731 129.463-0.731 18.286-2.194 36.571-3.657 54.857l-206.263 0.731c-2.194-18.286-2.926-36.571-4.389-54.857-2.194-43.154-2.194-86.309 0-129.463 2.926-50.469 8.777-101.669 22.674-150.674 6.583-22.674 14.629-44.617 24.869-65.097 7.314-14.629 16.823-27.794 27.794-39.497 5.12-5.12 10.24-10.971 11.703-18.286 2.926-10.24 2.194-21.943 2.194-32.914 0.731-34.377 1.463-68.754 1.463-103.863 0-38.034 9.509-84.846-24.869-111.909-14.629-11.703-68.754-21.943-73.143-25.6-1.463-1.463-2.194-2.926-0.731-5.12 9.509-18.286 82.651-16.823 112.64-16.823 27.794 0 113.371-3.657 113.371 16.091 0.731 0.731-2.926 2.926-2.926 2.926zM415.451 552.473c0 0 28.526 8.046 68.754-18.286 40.96-26.331 98.743 14.629 108.251 41.691 0 0-30.72-201.143-87.771-199.68-51.2 0.731-76.069 95.817-89.234 176.274z" />
<glyph unicode="rdl_stand_panel" glyph-name="stand_panel" horiz-adv-x="1002" d="M897.463 431.056c0-21.41-17.356-38.766-38.766-38.766s-38.766 17.356-38.766 38.766c0 21.41 17.356 38.766 38.766 38.766s38.766-17.356 38.766-38.766zM778.24 431.056c0-21.41-17.356-38.766-38.766-38.766s-38.766 17.356-38.766 38.766c0 21.41 17.356 38.766 38.766 38.766s38.766-17.356 38.766-38.766zM658.286 431.056c0-21.41-17.356-38.766-38.766-38.766s-38.766 17.356-38.766 38.766c0 21.41 17.356 38.766 38.766 38.766s38.766-17.356 38.766-38.766zM539.063 431.056c0-21.41-17.356-38.766-38.766-38.766s-38.766 17.356-38.766 38.766c0 21.41 17.356 38.766 38.766 38.766s38.766-17.356 38.766-38.766zM419.84 431.056c0-21.41-17.356-38.766-38.766-38.766s-38.766 17.356-38.766 38.766c0 21.41 17.356 38.766 38.766 38.766s38.766-17.356 38.766-38.766zM897.463 322.804c0-21.41-17.356-38.766-38.766-38.766s-38.766 17.356-38.766 38.766c0 21.41 17.356 38.766 38.766 38.766s38.766-17.356 38.766-38.766zM778.24 322.804c0-21.41-17.356-38.766-38.766-38.766s-38.766 17.356-38.766 38.766c0 21.41 17.356 38.766 38.766 38.766s38.766-17.356 38.766-38.766zM658.286 322.804c0-21.41-17.356-38.766-38.766-38.766s-38.766 17.356-38.766 38.766c0 21.41 17.356 38.766 38.766 38.766s38.766-17.356 38.766-38.766zM539.063 322.804c0-21.41-17.356-38.766-38.766-38.766s-38.766 17.356-38.766 38.766c0 21.41 17.356 38.766 38.766 38.766s38.766-17.356 38.766-38.766zM419.84 322.804c0-21.41-17.356-38.766-38.766-38.766s-38.766 17.356-38.766 38.766c0 21.41 17.356 38.766 38.766 38.766s38.766-17.356 38.766-38.766zM897.463 214.553c0-21.41-17.356-38.766-38.766-38.766s-38.766 17.356-38.766 38.766c0 21.41 17.356 38.766 38.766 38.766s38.766-17.356 38.766-38.766zM778.24 214.553c0-21.41-17.356-38.766-38.766-38.766s-38.766 17.356-38.766 38.766c0 21.41 17.356 38.766 38.766 38.766s38.766-17.356 38.766-38.766zM658.286 214.553c0-21.41-17.356-38.766-38.766-38.766s-38.766 17.356-38.766 38.766c0 21.41 17.356 38.766 38.766 38.766s38.766-17.356 38.766-38.766zM539.063 214.553c0-21.41-17.356-38.766-38.766-38.766s-38.766 17.356-38.766 38.766c0 21.41 17.356 38.766 38.766 38.766s38.766-17.356 38.766-38.766zM419.84 214.553c0-21.41-17.356-38.766-38.766-38.766s-38.766 17.356-38.766 38.766c0 21.41 17.356 38.766 38.766 38.766s38.766-17.356 38.766-38.766zM897.463 107.033c0-21.41-17.356-38.766-38.766-38.766s-38.766 17.356-38.766 38.766c0 21.41 17.356 38.766 38.766 38.766s38.766-17.356 38.766-38.766zM778.24 107.033c0-21.41-17.356-38.766-38.766-38.766s-38.766 17.356-38.766 38.766c0 21.41 17.356 38.766 38.766 38.766s38.766-17.356 38.766-38.766zM658.286 107.033c0-21.41-17.356-38.766-38.766-38.766s-38.766 17.356-38.766 38.766c0 21.41 17.356 38.766 38.766 38.766s38.766-17.356 38.766-38.766zM539.063 107.033c0-21.41-17.356-38.766-38.766-38.766s-38.766 17.356-38.766 38.766c0 21.41 17.356 38.766 38.766 38.766s38.766-17.356 38.766-38.766zM419.84 107.033c0-21.41-17.356-38.766-38.766-38.766s-38.766 17.356-38.766 38.766c0 21.41 17.356 38.766 38.766 38.766s38.766-17.356 38.766-38.766zM300.617 431.056c0-21.41-17.356-38.766-38.766-38.766s-38.766 17.356-38.766 38.766c0 21.41 17.356 38.766 38.766 38.766s38.766-17.356 38.766-38.766zM300.617 322.804c0-21.41-17.356-38.766-38.766-38.766s-38.766 17.356-38.766 38.766c0 21.41 17.356 38.766 38.766 38.766s38.766-17.356 38.766-38.766zM300.617 214.553c0-21.41-17.356-38.766-38.766-38.766s-38.766 17.356-38.766 38.766c0 21.41 17.356 38.766 38.766 38.766s38.766-17.356 38.766-38.766zM300.617 107.033c0-21.41-17.356-38.766-38.766-38.766s-38.766 17.356-38.766 38.766c0 21.41 17.356 38.766 38.766 38.766s38.766-17.356 38.766-38.766zM182.126 431.056c0-21.41-17.356-38.766-38.766-38.766s-38.766 17.356-38.766 38.766c0 21.41 17.356 38.766 38.766 38.766s38.766-17.356 38.766-38.766zM182.126 322.804c0-21.41-17.356-38.766-38.766-38.766s-38.766 17.356-38.766 38.766c0 21.41 17.356 38.766 38.766 38.766s38.766-17.356 38.766-38.766zM182.126 214.553c0-21.41-17.356-38.766-38.766-38.766s-38.766 17.356-38.766 38.766c0 21.41 17.356 38.766 38.766 38.766s38.766-17.356 38.766-38.766zM182.126 107.033c0-21.41-17.356-38.766-38.766-38.766s-38.766 17.356-38.766 38.766c0 21.41 17.356 38.766 38.766 38.766s38.766-17.356 38.766-38.766zM829.44 748.496c0-20.198-16.374-36.571-36.571-36.571s-36.571 16.374-36.571 36.571c0 20.198 16.374 36.571 36.571 36.571s36.571-16.374 36.571-36.571zM711.68 748.496c0-20.198-16.374-36.571-36.571-36.571s-36.571 16.374-36.571 36.571c0 20.198 16.374 36.571 36.571 36.571s36.571-16.374 36.571-36.571zM594.651 748.496c0-20.198-16.374-36.571-36.571-36.571s-36.571 16.374-36.571 36.571c0 20.198 16.374 36.571 36.571 36.571s36.571-16.374 36.571-36.571zM476.891 748.496c0-20.198-16.374-36.571-36.571-36.571s-36.571 16.374-36.571 36.571c0 20.198 16.374 36.571 36.571 36.571s36.571-16.374 36.571-36.571zM359.131 748.496c0-20.198-16.374-36.571-36.571-36.571s-36.571 16.374-36.571 36.571c0 20.198 16.374 36.571 36.571 36.571s36.571-16.374 36.571-36.571zM241.371 748.496c0-20.198-16.374-36.571-36.571-36.571s-36.571 16.374-36.571 36.571c0 20.198 16.374 36.571 36.571 36.571s36.571-16.374 36.571-36.571zM841.098 577.529h-680.96v115.566h680.96v-115.566z" />
<glyph unicode="rdl_stand_lone" glyph-name="stand_lone" horiz-adv-x="1002" d="M256 53.638c0-18.178-14.736-32.914-32.914-32.914s-32.914 14.736-32.914 32.914c0 18.178 14.736 32.914 32.914 32.914s32.914-14.736 32.914-32.914zM357.669 53.638c0-18.178-14.736-32.914-32.914-32.914s-32.914 14.736-32.914 32.914c0 18.178 14.736 32.914 32.914 32.914s32.914-14.736 32.914-32.914zM357.669 331.581c0-18.178-14.736-32.914-32.914-32.914s-32.914 14.736-32.914 32.914c0 18.178 14.736 32.914 32.914 32.914s32.914-14.736 32.914-32.914zM256 331.581c0-18.178-14.736-32.914-32.914-32.914s-32.914 14.736-32.914 32.914c0 18.178 14.736 32.914 32.914 32.914s32.914-14.736 32.914-32.914zM182.126 284.77v-185.051h185.051v185.051zM168.229 243.078c0-18.178-14.736-32.914-32.914-32.914s-32.914 14.736-32.914 32.914c0 18.178 14.736 32.914 32.914 32.914s32.914-14.736 32.914-32.914zM168.229 141.41c0-18.178-14.736-32.914-32.914-32.914s-32.914 14.736-32.914 32.914c0 18.178 14.736 32.914 32.914 32.914s32.914-14.736 32.914-32.914zM446.171 141.41c0-18.178-14.736-32.914-32.914-32.914s-32.914 14.736-32.914 32.914c0 18.178 14.736 32.914 32.914 32.914s32.914-14.736 32.914-32.914zM446.171 243.078c0-18.178-14.736-32.914-32.914-32.914s-32.914 14.736-32.914 32.914c0 18.178 14.736 32.914 32.914 32.914s32.914-14.736 32.914-32.914zM708.754 53.638c0-18.178-14.736-32.914-32.914-32.914s-32.914 14.736-32.914 32.914c0 18.178 14.736 32.914 32.914 32.914s32.914-14.736 32.914-32.914zM810.423 53.638c0-18.178-14.736-32.914-32.914-32.914s-32.914 14.736-32.914 32.914c0 18.178 14.736 32.914 32.914 32.914s32.914-14.736 32.914-32.914zM810.423 331.581c0-18.178-14.736-32.914-32.914-32.914s-32.914 14.736-32.914 32.914c0 18.178 14.736 32.914 32.914 32.914s32.914-14.736 32.914-32.914zM708.754 331.581c0-18.178-14.736-32.914-32.914-32.914s-32.914 14.736-32.914 32.914c0 18.178 14.736 32.914 32.914 32.914s32.914-14.736 32.914-32.914zM634.88 284.77v-185.051h185.783v185.051zM621.714 243.078c0-18.178-14.736-32.914-32.914-32.914s-32.914 14.736-32.914 32.914c0 18.178 14.736 32.914 32.914 32.914s32.914-14.736 32.914-32.914zM621.714 141.41c0-18.178-14.736-32.914-32.914-32.914s-32.914 14.736-32.914 32.914c0 18.178 14.736 32.914 32.914 32.914s32.914-14.736 32.914-32.914zM899.657 141.41c0-18.178-14.736-32.914-32.914-32.914s-32.914 14.736-32.914 32.914c0 18.178 14.736 32.914 32.914 32.914s32.914-14.736 32.914-32.914zM899.657 243.078c0-18.178-14.736-32.914-32.914-32.914s-32.914 14.736-32.914 32.914c0 18.178 14.736 32.914 32.914 32.914s32.914-14.736 32.914-32.914zM256 507.124c0-18.178-14.736-32.914-32.914-32.914s-32.914 14.736-32.914 32.914c0 18.178 14.736 32.914 32.914 32.914s32.914-14.736 32.914-32.914zM357.669 507.124c0-18.178-14.736-32.914-32.914-32.914s-32.914 14.736-32.914 32.914c0 18.178 14.736 32.914 32.914 32.914s32.914-14.736 32.914-32.914zM357.669 785.067c0-18.178-14.736-32.914-32.914-32.914s-32.914 14.736-32.914 32.914c0 18.178 14.736 32.914 32.914 32.914s32.914-14.736 32.914-32.914zM256 785.067c0-18.178-14.736-32.914-32.914-32.914s-32.914 14.736-32.914 32.914c0 18.178 14.736 32.914 32.914 32.914s32.914-14.736 32.914-32.914zM182.126 738.256v-185.783h185.051v185.783zM168.229 695.833c0-18.178-14.736-32.914-32.914-32.914s-32.914 14.736-32.914 32.914c0 18.178 14.736 32.914 32.914 32.914s32.914-14.736 32.914-32.914zM168.229 594.164c0-18.178-14.736-32.914-32.914-32.914s-32.914 14.736-32.914 32.914c0 18.178 14.736 32.914 32.914 32.914s32.914-14.736 32.914-32.914zM446.171 594.164c0-18.178-14.736-32.914-32.914-32.914s-32.914 14.736-32.914 32.914c0 18.178 14.736 32.914 32.914 32.914s32.914-14.736 32.914-32.914zM446.171 695.833c0-18.178-14.736-32.914-32.914-32.914s-32.914 14.736-32.914 32.914c0 18.178 14.736 32.914 32.914 32.914s32.914-14.736 32.914-32.914zM708.754 507.124c0-18.178-14.736-32.914-32.914-32.914s-32.914 14.736-32.914 32.914c0 18.178 14.736 32.914 32.914 32.914s32.914-14.736 32.914-32.914zM810.423 507.124c0-18.178-14.736-32.914-32.914-32.914s-32.914 14.736-32.914 32.914c0 18.178 14.736 32.914 32.914 32.914s32.914-14.736 32.914-32.914zM810.423 785.067c0-18.178-14.736-32.914-32.914-32.914s-32.914 14.736-32.914 32.914c0 18.178 14.736 32.914 32.914 32.914s32.914-14.736 32.914-32.914zM708.754 785.067c0-18.178-14.736-32.914-32.914-32.914s-32.914 14.736-32.914 32.914c0 18.178 14.736 32.914 32.914 32.914s32.914-14.736 32.914-32.914zM634.88 738.256v-185.783h185.783v185.783zM621.714 695.833c0-18.178-14.736-32.914-32.914-32.914s-32.914 14.736-32.914 32.914c0 18.178 14.736 32.914 32.914 32.914s32.914-14.736 32.914-32.914zM621.714 594.164c0-18.178-14.736-32.914-32.914-32.914s-32.914 14.736-32.914 32.914c0 18.178 14.736 32.914 32.914 32.914s32.914-14.736 32.914-32.914zM899.657 594.164c0-18.178-14.736-32.914-32.914-32.914s-32.914 14.736-32.914 32.914c0 18.178 14.736 32.914 32.914 32.914s32.914-14.736 32.914-32.914zM899.657 695.833c0-18.178-14.736-32.914-32.914-32.914s-32.914 14.736-32.914 32.914c0 18.178 14.736 32.914 32.914 32.914s32.914-14.736 32.914-32.914z" />
<glyph unicode="rdl_stand_desk" glyph-name="stand_desk" horiz-adv-x="1002" d="M239.909 169.204c0-32.721-26.525-59.246-59.246-59.246s-59.246 26.525-59.246 59.246c0 32.721 26.525 59.246 59.246 59.246s59.246-26.525 59.246-59.246zM430.811 169.204c0-32.721-26.525-59.246-59.246-59.246s-59.246 26.525-59.246 59.246c0 32.721 26.525 59.246 59.246 59.246s59.246-26.525 59.246-59.246zM102.4 385.707h347.429v-137.509h-347.429v137.509zM689.737 169.204c0-32.721-26.525-59.246-59.246-59.246s-59.246 26.525-59.246 59.246c0 32.721 26.525 59.246 59.246 59.246s59.246-26.525 59.246-59.246zM880.64 169.204c0-32.721-26.525-59.246-59.246-59.246s-59.246 26.525-59.246 59.246c0 32.721 26.525 59.246 59.246 59.246s59.246-26.525 59.246-59.246zM552.229 385.707h347.429v-137.509h-347.429v137.509zM239.909 570.027c0-32.721-26.525-59.246-59.246-59.246s-59.246 26.525-59.246 59.246c0 32.721 26.525 59.246 59.246 59.246s59.246-26.525 59.246-59.246zM430.811 570.027c0-32.721-26.525-59.246-59.246-59.246s-59.246 26.525-59.246 59.246c0 32.721 26.525 59.246 59.246 59.246s59.246-26.525 59.246-59.246zM102.4 787.261h347.429v-137.509h-347.429v137.509zM689.737 570.027c0-32.721-26.525-59.246-59.246-59.246s-59.246 26.525-59.246 59.246c0 32.721 26.525 59.246 59.246 59.246s59.246-26.525 59.246-59.246zM880.64 570.027c0-32.721-26.525-59.246-59.246-59.246s-59.246 26.525-59.246 59.246c0 32.721 26.525 59.246 59.246 59.246s59.246-26.525 59.246-59.246zM552.229 787.261h347.429v-137.509h-347.429v137.509z" />
<glyph unicode="rdl_stand_conference" glyph-name="stand_conference" horiz-adv-x="1002" d="M195.291 469.821c0-23.833-19.321-43.154-43.154-43.154s-43.154 19.321-43.154 43.154c0 23.833 19.321 43.154 43.154 43.154s43.154-19.321 43.154-43.154zM335.726 469.821c0-23.833-19.321-43.154-43.154-43.154s-43.154 19.321-43.154 43.154c0 23.833 19.321 43.154 43.154 43.154s43.154-19.321 43.154-43.154zM475.429 469.821c0-23.833-19.321-43.154-43.154-43.154s-43.154 19.321-43.154 43.154c0 23.833 19.321 43.154 43.154 43.154s43.154-19.321 43.154-43.154zM615.863 469.821c0-23.833-19.321-43.154-43.154-43.154s-43.154 19.321-43.154 43.154c0 23.833 19.321 43.154 43.154 43.154s43.154-19.321 43.154-43.154zM756.297 469.821c0-23.833-19.321-43.154-43.154-43.154s-43.154 19.321-43.154 43.154c0 23.833 19.321 43.154 43.154 43.154s43.154-19.321 43.154-43.154zM896 469.821c0-23.833-19.321-43.154-43.154-43.154s-43.154 19.321-43.154 43.154c0 23.833 19.321 43.154 43.154 43.154s43.154-19.321 43.154-43.154zM195.291 734.598c0-23.833-19.321-43.154-43.154-43.154s-43.154 19.321-43.154 43.154c0 23.833 19.321 43.154 43.154 43.154s43.154-19.321 43.154-43.154zM335.726 734.598c0-23.833-19.321-43.154-43.154-43.154s-43.154 19.321-43.154 43.154c0 23.833 19.321 43.154 43.154 43.154s43.154-19.321 43.154-43.154zM475.429 734.598c0-23.833-19.321-43.154-43.154-43.154s-43.154 19.321-43.154 43.154c0 23.833 19.321 43.154 43.154 43.154s43.154-19.321 43.154-43.154zM615.863 734.598c0-23.833-19.321-43.154-43.154-43.154s-43.154 19.321-43.154 43.154c0 23.833 19.321 43.154 43.154 43.154s43.154-19.321 43.154-43.154zM756.297 734.598c0-23.833-19.321-43.154-43.154-43.154s-43.154 19.321-43.154 43.154c0 23.833 19.321 43.154 43.154 43.154s43.154-19.321 43.154-43.154zM896 734.598c0-23.833-19.321-43.154-43.154-43.154s-43.154 19.321-43.154 43.154c0 23.833 19.321 43.154 43.154 43.154s43.154-19.321 43.154-43.154zM95.086 674.621h811.886v-137.509h-811.886v137.509z" />
<glyph unicode="rdl_stand_cinema" glyph-name="stand_cinema" horiz-adv-x="1002" d="M213.577 116.541c0-30.701-24.888-55.589-55.589-55.589s-55.589 24.888-55.589 55.589c0 30.701 24.888 55.589 55.589 55.589s55.589-24.888 55.589-55.589zM384.731 116.541c0-30.701-24.888-55.589-55.589-55.589s-55.589 24.888-55.589 55.589c0 30.701 24.888 55.589 55.589 55.589s55.589-24.888 55.589-55.589zM556.617 116.541c0-30.701-24.888-55.589-55.589-55.589s-55.589 24.888-55.589 55.589c0 30.701 24.888 55.589 55.589 55.589s55.589-24.888 55.589-55.589zM728.503 116.541c0-30.701-24.888-55.589-55.589-55.589s-55.589 24.888-55.589 55.589c0 30.701 24.888 55.589 55.589 55.589s55.589-24.888 55.589-55.589zM899.657 116.541c0-30.701-24.888-55.589-55.589-55.589s-55.589 24.888-55.589 55.589c0 30.701 24.888 55.589 55.589 55.589s55.589-24.888 55.589-55.589zM213.577 271.604c0-30.701-24.888-55.589-55.589-55.589s-55.589 24.888-55.589 55.589c0 30.701 24.888 55.589 55.589 55.589s55.589-24.888 55.589-55.589zM384.731 271.604c0-30.701-24.888-55.589-55.589-55.589s-55.589 24.888-55.589 55.589c0 30.701 24.888 55.589 55.589 55.589s55.589-24.888 55.589-55.589zM556.617 271.604c0-30.701-24.888-55.589-55.589-55.589s-55.589 24.888-55.589 55.589c0 30.701 24.888 55.589 55.589 55.589s55.589-24.888 55.589-55.589zM728.503 271.604c0-30.701-24.888-55.589-55.589-55.589s-55.589 24.888-55.589 55.589c0 30.701 24.888 55.589 55.589 55.589s55.589-24.888 55.589-55.589zM899.657 271.604c0-30.701-24.888-55.589-55.589-55.589s-55.589 24.888-55.589 55.589c0 30.701 24.888 55.589 55.589 55.589s55.589-24.888 55.589-55.589zM213.577 426.667c0-30.701-24.888-55.589-55.589-55.589s-55.589 24.888-55.589 55.589c0 30.701 24.888 55.589 55.589 55.589s55.589-24.888 55.589-55.589zM384.731 426.667c0-30.701-24.888-55.589-55.589-55.589s-55.589 24.888-55.589 55.589c0 30.701 24.888 55.589 55.589 55.589s55.589-24.888 55.589-55.589zM556.617 426.667c0-30.701-24.888-55.589-55.589-55.589s-55.589 24.888-55.589 55.589c0 30.701 24.888 55.589 55.589 55.589s55.589-24.888 55.589-55.589zM728.503 426.667c0-30.701-24.888-55.589-55.589-55.589s-55.589 24.888-55.589 55.589c0 30.701 24.888 55.589 55.589 55.589s55.589-24.888 55.589-55.589zM899.657 426.667c0-30.701-24.888-55.589-55.589-55.589s-55.589 24.888-55.589 55.589c0 30.701 24.888 55.589 55.589 55.589s55.589-24.888 55.589-55.589zM213.577 581.73c0-30.701-24.888-55.589-55.589-55.589s-55.589 24.888-55.589 55.589c0 30.701 24.888 55.589 55.589 55.589s55.589-24.888 55.589-55.589zM384.731 581.73c0-30.701-24.888-55.589-55.589-55.589s-55.589 24.888-55.589 55.589c0 30.701 24.888 55.589 55.589 55.589s55.589-24.888 55.589-55.589zM556.617 581.73c0-30.701-24.888-55.589-55.589-55.589s-55.589 24.888-55.589 55.589c0 30.701 24.888 55.589 55.589 55.589s55.589-24.888 55.589-55.589zM728.503 581.73c0-30.701-24.888-55.589-55.589-55.589s-55.589 24.888-55.589 55.589c0 30.701 24.888 55.589 55.589 55.589s55.589-24.888 55.589-55.589zM899.657 581.73c0-30.701-24.888-55.589-55.589-55.589s-55.589 24.888-55.589 55.589c0 30.701 24.888 55.589 55.589 55.589s55.589-24.888 55.589-55.589zM213.577 736.793c0-30.701-24.888-55.589-55.589-55.589s-55.589 24.888-55.589 55.589c0 30.701 24.888 55.589 55.589 55.589s55.589-24.888 55.589-55.589zM384.731 736.793c0-30.701-24.888-55.589-55.589-55.589s-55.589 24.888-55.589 55.589c0 30.701 24.888 55.589 55.589 55.589s55.589-24.888 55.589-55.589zM556.617 736.793c0-30.701-24.888-55.589-55.589-55.589s-55.589 24.888-55.589 55.589c0 30.701 24.888 55.589 55.589 55.589s55.589-24.888 55.589-55.589zM728.503 736.793c0-30.701-24.888-55.589-55.589-55.589s-55.589 24.888-55.589 55.589c0 30.701 24.888 55.589 55.589 55.589s55.589-24.888 55.589-55.589zM899.657 736.793c0-30.701-24.888-55.589-55.589-55.589s-55.589 24.888-55.589 55.589c0 30.701 24.888 55.589 55.589 55.589s55.589-24.888 55.589-55.589z" />
<glyph unicode="rdl_sound" glyph-name="sound" horiz-adv-x="1002" d="M119.464 556.924v-261.173h169.729l211.832-217.753v696.679l-211.832-217.753h-169.729zM691.807 426.667c0 76.971-43.418 143.415-105.916 175.649v-349.984c62.498 30.919 105.916 97.363 105.916 174.335zM585.891 808.23v-89.47c122.364-37.497 211.832-153.94 211.832-292.092s-89.47-254.595-211.832-292.092v-89.47c169.729 39.472 296.698 195.386 296.698 381.563s-126.968 342.091-296.698 381.563z" />
<glyph unicode="rdl_projector" glyph-name="projector" horiz-adv-x="1002" d="M849.92 442.027c0-44.839-36.349-81.189-81.189-81.189s-81.189 36.349-81.189 81.189c0 44.839 36.349 81.189 81.189 81.189s81.189-36.349 81.189-81.189zM904.046 627.81h-806.034c-21.943 0-39.497-17.554-39.497-39.497v-292.571c0-21.943 17.554-39.497 39.497-39.497h32.183l29.257-30.72h130.926l27.794 30.72h367.177l29.257-30.72h130.926l27.794 30.72h31.451c21.943 0 39.497 17.554 39.497 39.497v292.571c-0.731 21.943-18.286 39.497-40.229 39.497zM768.731 315.49c-70.217 0-126.537 57.051-126.537 126.537s57.051 126.537 126.537 126.537 126.537-57.051 126.537-126.537-56.32-126.537-126.537-126.537z" />
<glyph unicode="rdl_ppt" glyph-name="ppt" d="M262.145 377.515h-32.768v-102.4h36.863c38.912 0 53.248 16.384 53.248 51.199 0 38.912-16.384 51.199-57.344 51.199zM503.808 377.515h-32.768v-102.4h36.863c38.912 0 53.248 16.384 53.248 51.199 0 38.912-16.384 51.199-57.344 51.199zM614.4 938.667h-409.599c-57.344 0-102.4-45.056-102.4-102.4v-819.2c0-57.344 45.056-102.4 102.4-102.4h614.399c57.344 0 102.4 45.056 102.4 102.4v614.399l-307.2 307.2zM563.2 862.891l282.623-282.623h-282.623v282.623zM268.288 228.011h-38.912v-104.448h-53.248v301.056h88.064c67.584 0 108.543-20.481 108.543-98.304 0-69.632-38.912-98.304-104.448-98.304zM509.951 228.011h-38.912v-104.448h-53.248v301.056h88.064c67.584 0 108.543-20.481 108.543-98.304 0-69.632-38.912-98.304-104.448-98.304zM854.015 377.515h-79.871v-251.903h-53.248v251.903h-79.871v47.104h212.992v-47.104z" />
<glyph unicode="rdl_pdf" glyph-name="pdf" d="M508.933 368.416h-38.834v-196.215h38.834c53.141 0 65.405 47.010 65.405 100.152 0 44.966-12.263 96.063-65.405 96.063zM263.664 366.372h-30.659v-98.108h34.747c36.79 0 51.097 16.351 51.097 51.097-2.044 36.79-16.351 47.010-55.185 47.010zM921.803 634.124l-308.63 304.543-408.782-2.044c-57.229 0-102.196-47.010-102.196-102.196l2.044-817.564c0-57.229 44.966-102.196 102.196-102.196l613.173 2.044c57.229 0 102.196 47.010 102.196 102.196v615.217zM267.75 225.342h-36.79v-98.108h-51.097l-2.044 286.147h83.8c65.405 0 104.24-18.396 104.24-94.019 4.088-67.449-34.747-94.019-98.108-94.019zM521.196 127.234h-102.196l-2.044 286.147h91.977c69.493 0 116.503-44.966 116.503-141.030 2.044-89.932-42.922-145.118-104.24-145.118zM731.719 290.747h98.108v-44.966h-98.108v-118.547h-51.097l-2.044 286.147h159.425v-44.966h-108.327l2.044-77.669zM564.119 580.983l-2.044 282.059 282.059-280.015-280.015-2.044z" />
<glyph unicode="rdl_participants" glyph-name="participants" horiz-adv-x="1002" d="M334.263 768.976c0-49.283-39.624-89.234-88.503-89.234s-88.503 39.952-88.503 89.234c0 49.283 39.624 89.234 88.503 89.234s88.503-39.952 88.503-89.234zM588.8 711.924c0-49.283-39.624-89.234-88.503-89.234s-88.503 39.952-88.503 89.234c0 49.283 39.624 89.234 88.503 89.234s88.503-39.952 88.503-89.234zM403.017 588.313c-35.84 34.377-113.371 53.394-157.257 53.394-58.514 0-176.274-32.914-176.274-92.16v-29.989h236.251c8.046 32.914 52.663 56.32 97.28 68.754zM844.8 654.873c0-49.283-39.624-89.234-88.503-89.234s-88.503 39.952-88.503 89.234c0 49.283 39.624 89.234 88.503 89.234s88.503-39.952 88.503-89.234zM659.017 531.993c-35.84 34.377-113.371 53.394-157.257 53.394-58.514 0-176.274-32.914-176.274-92.16v-29.989h236.251c8.046 32.914 51.931 55.589 97.28 68.754zM756.297 527.604c-58.514 0-176.274-32.914-176.274-92.16v-29.989h352.549v29.989c0 59.246-117.76 92.16-176.274 92.16zM334.263 358.644c0-49.283-39.624-89.234-88.503-89.234s-88.503 39.952-88.503 89.234c0 49.283 39.624 89.234 88.503 89.234s88.503-39.952 88.503-89.234zM588.8 300.861c0-49.283-39.624-89.234-88.503-89.234s-88.503 39.952-88.503 89.234c0 49.283 39.624 89.234 88.503 89.234s88.503-39.952 88.503-89.234zM403.017 177.981c-35.84 34.377-113.371 53.394-157.257 53.394-58.514 0-176.274-32.914-176.274-92.16v-29.989h236.251c8.046 32.914 52.663 55.589 97.28 68.754zM844.8 243.81c0-49.283-39.624-89.234-88.503-89.234s-88.503 39.952-88.503 89.234c0 49.283 39.624 89.234 88.503 89.234s88.503-39.952 88.503-89.234zM659.017 120.93c-35.84 34.377-113.371 53.394-157.257 53.394-58.514 0-176.274-32.914-176.274-92.16v-29.989h236.251c8.046 32.914 51.931 56.32 97.28 68.754zM756.297 116.541c-58.514 0-176.274-32.914-176.274-92.16v-29.989h352.549v29.989c0 59.977-117.76 92.16-176.274 92.16z" />
<glyph unicode="rdl_microphone" glyph-name="microphone" horiz-adv-x="1002" d="M501.029 314.758c73.874 0 133.851 59.977 133.851 133.851l0.731 267.703c0 73.874-59.977 133.851-133.851 133.851s-133.851-59.977-133.851-133.851v-267.703c-0.731-73.874 59.246-133.851 133.12-133.851zM738.011 449.341c0-133.851-113.371-227.474-236.983-227.474s-236.983 92.891-236.983 227.474h-75.337c0-152.137 121.417-277.943 267.703-299.886v-146.286h89.234v146.286c146.286 21.211 267.703 147.017 267.703 299.886h-75.337z" />
<glyph unicode="rdl_m2" glyph-name="m2" horiz-adv-x="1002" d="M766.776 675.369h-734.482v-485.781h454.015v48.811h-404.43v388.16h636.087v-388.16h-59.658l-154.955-77.477 10.847-22.468 10.847-21.693 144.107 72.828h97.621zM923.28 655.999v8.523c0 22.468 37.189 34.864 37.189 49.585 0 9.297-6.198 13.171-15.496 13.171-6.198 0-12.396-2.324-17.82-5.423l-3.874 7.747c4.649 3.099 12.396 6.973 21.693 6.973 14.72 0 24.793-7.747 24.793-21.693 0-22.468-36.414-30.99-36.414-49.585h36.414v-9.297h-46.486zM862.072 641.278c0 13.946-5.423 18.594-16.27 18.594-7.747 0-13.946-4.649-17.82-8.523v-61.207h-11.621v79.801h9.297l1.55-10.072c3.099 3.874 11.621 10.847 23.243 10.847 10.847 0 17.044-4.649 20.919-11.621 3.099 3.874 12.396 11.621 24.017 11.621 17.044 0 24.017-12.396 24.017-27.117v-54.234h-11.621v51.135c0 13.946-6.198 18.594-16.27 18.594-7.747 0-13.946-4.649-17.82-8.523 0.774-2.324 0.774-4.649 0.774-7.747v-54.234h-11.621v52.685z" />
<glyph unicode="rdl_linkedin" glyph-name="linkedin" d="M981.333-21.333v0 0 345.408c0 168.75-36.913 297.947-232.030 297.947-94.92 0-158.202-52.733-184.569-100.195h-2.637v84.374h-187.206v-627.535h195.115v311.132c0 81.739 15.82 160.839 116.015 160.839s100.195-92.283 100.195-166.111v-305.856h195.115zM58.485 606.203h195.115v-627.535h-195.115v627.535zM156.045 917.334c-63.282 0-113.378-50.098-113.378-113.378s50.098-113.378 113.378-113.378 113.378 52.733 113.378 113.378c0 63.282-50.098 113.378-113.378 113.378z" />
<glyph unicode="rdl_light" glyph-name="light" horiz-adv-x="1002" d="M604.893 665.111h-171.157l-143.066 142.411-171.157-171.157 143.066-142.411v-171.808l143.066-143.066 342.314 342.314-143.066 143.719zM804.796 179.732l-56.834-56.834-85.576 85.576 56.834 56.834 85.576-85.576zM908.012 504.406v-80.35h-120.855v80.35h120.855zM503.637 140.537v-120.855h-80.35v120.855h80.35z" />
<glyph unicode="rdl_lectern" glyph-name="lectern" horiz-adv-x="1002" d="M499.566 718.507c19.749 0 32.183 16.091 32.183 32.183v68.023c0 19.749-16.091 32.183-32.183 32.183-19.749 0-32.183-16.091-32.183-32.183v-68.023c0-19.017 12.434-32.183 32.183-32.183zM557.349 750.69c0-32.183-29.257-58.514-58.514-58.514s-58.514 22.674-58.514 58.514h-19.749c0-38.766 29.257-70.949 68.023-74.606v-35.84h23.406v35.84c35.84 6.583 68.023 35.84 68.023 74.606h-22.674zM278.674 452.998v42.423c0 35.109 28.526 63.634 63.634 63.634h317.44c35.109 0 63.634-28.526 63.634-63.634v-42.423h27.063l79.726 198.949c0 0-658.286 2.194-658.286 0l79.726-198.949h27.063zM691.2 71.924v407.406c0 29.989-24.137 54.126-54.126 54.126h-272.091c-29.989 0-54.126-24.137-54.126-54.126v-404.48h-42.423v-72.411h464.457v68.754l-41.691 0.731z" />
<glyph unicode="rdl_instagram" glyph-name="insta" d="M723.88-64.001h-423.759c-153.891 0-278.788 124.897-278.788 278.788v423.759c0 153.891 124.897 278.788 278.788 278.788h423.759c153.891 0 278.788-124.897 278.788-278.788v-423.759c0-153.891-124.897-278.788-278.788-278.788zM300.122 832.582c-107.054 0-196.268-86.982-196.268-196.268v-423.759c0-107.054 86.982-196.268 196.268-196.268h423.759c107.054 0 196.268 86.982 196.268 196.268v423.759c0 107.054-86.982 196.268-196.268 196.268h-423.759zM512.001 174.643c-138.279 0-252.024 113.746-252.024 252.024s113.746 252.024 252.024 252.024c138.279 0 252.024-113.746 252.024-252.024s-113.746-252.024-252.024-252.024zM512.001 593.94c-91.442 0-167.273-75.831-167.273-167.273s75.831-167.273 167.273-167.273c91.442 0 167.273 75.831 167.273 167.273s-75.831 167.273-167.273 167.273zM835.395 692.073c0-33.454-26.763-60.218-60.218-60.218s-60.218 26.763-60.218 60.218c0 33.454 26.763 60.218 60.218 60.218 31.223 0 60.218-26.763 60.218-60.218z" />
<glyph unicode="rdl_flipover" glyph-name="flipover" horiz-adv-x="1002" d="M703.634 850.896h-405.211v-550.766h174.080l-96.549-265.509c-3.657-9.509 1.463-20.48 11.703-24.137 2.194-0.731 4.389-1.463 6.583-1.463 8.046 0 15.36 5.12 17.554 12.434l70.949 194.56v-194.56c0-10.24 8.777-19.017 19.017-19.017s19.017 8.777 19.017 19.017v194.56l70.949-194.56c2.926-8.046 10.24-12.434 17.554-12.434 2.194 0 4.389 0.731 6.583 1.463 9.509 3.657 14.629 14.629 11.703 24.137l-98.011 265.509h174.080v550.766zM650.24 360.107h-300.617v452.754h93.623v-19.017h114.103v19.017h93.623v-452.754z" />
<glyph unicode="rdl_facebook" glyph-name="fb" d="M585.142 631.754v83.182c0 40.156 25.815 48.761 45.894 48.761s114.735 0 114.735 0v174.97h-157.76c-174.97 0-215.126-131.945-215.126-215.126v-91.787h-100.392v-203.651h103.261c0-232.337 0-513.434 0-513.434h203.651c0 0 0 283.967 0 513.434h152.022l20.079 203.651h-166.365z" />
<glyph unicode="rdl_doc" glyph-name="doc" d="M518.144 367.276c-36.863 0-49.153-20.481-49.153-59.392v-79.871c0-38.912 14.336-59.392 49.153-59.392 36.863 0 49.153 20.481 49.153 59.392v81.92c0 36.863-12.288 57.344-49.153 57.344zM614.4 938.667h-409.599c-57.344 0-102.4-45.056-102.4-102.4v-819.2c0-57.344 45.056-102.4 102.4-102.4h614.399c57.344 0 102.4 45.056 102.4 102.4v614.399l-307.2 307.2zM563.2 862.891l282.623-282.623h-282.623v282.623zM276.481 127.659h-100.352v284.672h92.161c69.632 0 114.688-45.056 114.688-141.312 0-88.064-45.056-143.36-106.497-143.36zM618.496 225.963c0-61.44-32.768-100.352-100.352-100.352s-100.352 38.912-100.352 100.352v88.064c0 61.44 32.768 100.352 100.352 100.352s100.352-40.96 100.352-100.352v-88.064zM755.711 123.564c-71.68 0-102.4 43.008-102.4 108.543v71.68c0 65.535 28.672 108.543 100.352 108.543 45.056 0 73.728-20.481 92.161-59.392l-38.912-20.481c-14.336 24.576-30.72 32.768-51.199 32.768-36.863 0-49.153-22.527-49.153-59.392v-79.871c0-34.817 14.336-59.392 51.199-59.392 20.481 0 36.863 6.145 51.199 32.768l38.912-20.481c-18.432-34.817-47.104-55.296-92.161-55.296zM264.193 367.276h-36.863v-194.559h36.863c53.248 0 65.535 47.104 65.535 98.304 0 45.056-12.288 96.256-65.535 96.256z" />
<glyph unicode="rdl_diamond" glyph-name="diamond" d="M936.96 646.827c-25.6 30.72-117.76 128-117.76 128s-5.12 15.36-61.44 25.6c-51.2 5.12-153.6 20.48-250.88 20.48v0c-97.28 0-199.68-10.24-250.88-20.48-46.080-10.24-51.2-25.6-51.2-25.6s-92.16-97.28-117.76-128c-25.6-20.48-15.36-40.96-15.36-40.96s409.6-588.8 414.72-604.16c10.24-15.36 20.48-10.24 20.48-10.24v0c0 0 15.36 0 25.6 10.24 10.24 15.36 414.72 604.16 414.72 604.16s15.36 20.48-10.24 40.96zM803.84 738.987l87.040-97.28-133.12-20.48-46.080 102.4 92.16 15.36zM389.12 713.387h256l40.96-102.4h-343.040l46.080 102.4zM225.28 738.987l92.16-15.36-46.080-107.52-133.12 20.48 87.040 102.4zM138.24 590.507l133.12-20.48 133.12-368.64-266.24 389.12zM517.12 93.867l-174.080 465.92h343.040l-168.96-465.92zM624.64 196.267l133.12 368.64 133.12 20.48-266.24-389.12z" />
<glyph unicode="rdl_conferencecall" glyph-name="conferencecall" horiz-adv-x="1002" d="M718.994 491.033v151.406c0 24.137-19.749 43.154-43.154 43.154h-521.509c-24.137 0-43.154-19.749-43.154-43.154v-433.737c0-24.137 19.749-43.154 43.154-43.154h520.777c24.137 0 43.154 19.749 43.154 43.154v152.137l173.349-173.349v476.891l-172.617-173.349z" />
</font>
</defs>
</svg>
